<svg width="183" height="52" viewBox="0 0 183 52" fill="none" xmlns="http://www.w3.org/2000/svg">
<path d="M65.144 8.766V18H62.921V13.914H59.321V18H57.098V8.766H59.321V12.267H62.921V8.766H65.144ZM72.224 14.058C71.582 14.088 71.042 14.145 70.604 14.229C70.166 14.307 69.815 14.409 69.551 14.535C69.287 14.661 69.098 14.808 68.984 14.976C68.87 15.144 68.813 15.327 68.813 15.525C68.813 15.915 68.927 16.194 69.155 16.362C69.389 16.53 69.692 16.614 70.064 16.614C70.52 16.614 70.913 16.533 71.243 16.371C71.579 16.203 71.906 15.951 72.224 15.615V14.058ZM67.13 10.053C68.192 9.081 69.47 8.595 70.964 8.595C71.504 8.595 71.987 8.685 72.413 8.865C72.839 9.039 73.199 9.285 73.493 9.603C73.787 9.915 74.009 10.29 74.159 10.728C74.315 11.166 74.393 11.646 74.393 12.168V18H73.385C73.175 18 73.013 17.97 72.899 17.91C72.785 17.844 72.695 17.715 72.629 17.523L72.431 16.857C72.197 17.067 71.969 17.253 71.747 17.415C71.525 17.571 71.294 17.703 71.054 17.811C70.814 17.919 70.556 18 70.28 18.054C70.01 18.114 69.71 18.144 69.38 18.144C68.99 18.144 68.63 18.093 68.3 17.991C67.97 17.883 67.685 17.724 67.445 17.514C67.205 17.304 67.019 17.043 66.887 16.731C66.755 16.419 66.689 16.056 66.689 15.642C66.689 15.408 66.728 15.177 66.806 14.949C66.884 14.715 67.01 14.493 67.184 14.283C67.364 14.073 67.595 13.875 67.877 13.689C68.159 13.503 68.504 13.341 68.912 13.203C69.326 13.065 69.806 12.954 70.352 12.87C70.898 12.78 71.522 12.726 72.224 12.708V12.168C72.224 11.55 72.092 11.094 71.828 10.8C71.564 10.5 71.183 10.35 70.685 10.35C70.325 10.35 70.025 10.392 69.785 10.476C69.551 10.56 69.344 10.656 69.164 10.764C68.984 10.866 68.819 10.959 68.669 11.043C68.525 11.127 68.363 11.169 68.183 11.169C68.027 11.169 67.895 11.13 67.787 11.052C67.679 10.968 67.592 10.872 67.526 10.764L67.13 10.053ZM83.7767 8.766V18H81.5537V14.373C80.7617 14.565 80.0267 14.676 79.3487 14.706C78.6707 14.73 78.0827 14.649 77.5847 14.463C77.0927 14.271 76.7057 13.962 76.4237 13.536C76.1477 13.11 76.0097 12.543 76.0097 11.835V8.766H78.2327V11.493C78.2327 11.871 78.2927 12.177 78.4127 12.411C78.5387 12.639 78.7337 12.804 78.9977 12.906C79.2677 13.008 79.6127 13.05 80.0327 13.032C80.4527 13.014 80.9597 12.945 81.5537 12.825V8.766H83.7767ZM90.8569 14.058C90.2149 14.088 89.6749 14.145 89.2369 14.229C88.7989 14.307 88.4479 14.409 88.1839 14.535C87.9199 14.661 87.7309 14.808 87.6169 14.976C87.5029 15.144 87.4459 15.327 87.4459 15.525C87.4459 15.915 87.5599 16.194 87.7879 16.362C88.0219 16.53 88.3249 16.614 88.6969 16.614C89.1529 16.614 89.5459 16.533 89.8759 16.371C90.2119 16.203 90.5389 15.951 90.8569 15.615V14.058ZM85.7629 10.053C86.8249 9.081 88.1029 8.595 89.5969 8.595C90.1369 8.595 90.6199 8.685 91.0459 8.865C91.4719 9.039 91.8319 9.285 92.1259 9.603C92.4199 9.915 92.6419 10.29 92.7919 10.728C92.9479 11.166 93.0259 11.646 93.0259 12.168V18H92.0179C91.8079 18 91.6459 17.97 91.5319 17.91C91.4179 17.844 91.3279 17.715 91.2619 17.523L91.0639 16.857C90.8299 17.067 90.6019 17.253 90.3799 17.415C90.1579 17.571 89.9269 17.703 89.6869 17.811C89.4469 17.919 89.1889 18 88.9129 18.054C88.6429 18.114 88.3429 18.144 88.0129 18.144C87.6229 18.144 87.2629 18.093 86.9329 17.991C86.6029 17.883 86.3179 17.724 86.0779 17.514C85.8379 17.304 85.6519 17.043 85.5199 16.731C85.3879 16.419 85.3219 16.056 85.3219 15.642C85.3219 15.408 85.3609 15.177 85.4389 14.949C85.5169 14.715 85.6429 14.493 85.8169 14.283C85.9969 14.073 86.2279 13.875 86.5099 13.689C86.7919 13.503 87.1369 13.341 87.5449 13.203C87.9589 13.065 88.4389 12.954 88.9849 12.87C89.5309 12.78 90.1549 12.726 90.8569 12.708V12.168C90.8569 11.55 90.7249 11.094 90.4609 10.8C90.1969 10.5 89.8159 10.35 89.3179 10.35C88.9579 10.35 88.6579 10.392 88.4179 10.476C88.1839 10.56 87.9769 10.656 87.7969 10.764C87.6169 10.866 87.4519 10.959 87.3019 11.043C87.1579 11.127 86.9959 11.169 86.8159 11.169C86.6599 11.169 86.5279 11.13 86.4199 11.052C86.3119 10.968 86.2249 10.872 86.1589 10.764L85.7629 10.053ZM103.687 18H101.464V10.467H99.1965C99.1245 11.601 99.0135 12.579 98.8635 13.401C98.7135 14.217 98.5335 14.91 98.3235 15.48C98.1195 16.05 97.8885 16.509 97.6305 16.857C97.3785 17.199 97.1085 17.466 96.8205 17.658C96.5325 17.85 96.2355 17.976 95.9295 18.036C95.6235 18.102 95.3145 18.135 95.0025 18.135C94.6725 18.135 94.4295 18.105 94.2735 18.045C94.1235 17.991 94.0485 17.913 94.0485 17.811V16.425H94.5795C94.7775 16.425 94.9755 16.395 95.1735 16.335C95.3715 16.275 95.5635 16.152 95.7495 15.966C95.9355 15.78 96.1125 15.516 96.2805 15.174C96.4485 14.826 96.6015 14.37 96.7395 13.806C96.8835 13.236 97.0095 12.54 97.1175 11.718C97.2255 10.896 97.3095 9.912 97.3695 8.766H103.687V18ZM109.963 8.622C110.647 8.622 111.268 8.733 111.826 8.955C112.39 9.177 112.87 9.492 113.266 9.9C113.668 10.308 113.977 10.806 114.193 11.394C114.409 11.982 114.517 12.639 114.517 13.365C114.517 14.097 114.409 14.757 114.193 15.345C113.977 15.933 113.668 16.434 113.266 16.848C112.87 17.262 112.39 17.58 111.826 17.802C111.268 18.024 110.647 18.135 109.963 18.135C109.273 18.135 108.646 18.024 108.082 17.802C107.518 17.58 107.035 17.262 106.633 16.848C106.237 16.434 105.928 15.933 105.706 15.345C105.49 14.757 105.382 14.097 105.382 13.365C105.382 12.639 105.49 11.982 105.706 11.394C105.928 10.806 106.237 10.308 106.633 9.9C107.035 9.492 107.518 9.177 108.082 8.955C108.646 8.733 109.273 8.622 109.963 8.622ZM109.963 16.425C110.731 16.425 111.298 16.167 111.664 15.651C112.036 15.135 112.222 14.379 112.222 13.383C112.222 12.387 112.036 11.628 111.664 11.106C111.298 10.584 110.731 10.323 109.963 10.323C109.183 10.323 108.604 10.587 108.226 11.115C107.854 11.637 107.668 12.393 107.668 13.383C107.668 14.373 107.854 15.129 108.226 15.651C108.604 16.167 109.183 16.425 109.963 16.425Z" fill="#565656"/>
<path d="M56.62 33.02H62.28V47H59.28V35.68H56.62V33.02ZM71.1464 35.38C70.2797 35.38 69.6064 35.6733 69.1264 36.26C68.6597 36.8333 68.3731 37.62 68.2664 38.62C69.1331 38.06 70.0531 37.78 71.0264 37.78C72.3331 37.78 73.4197 38.2067 74.2864 39.06C75.1664 39.9133 75.6064 41.0533 75.6064 42.48C75.6064 43.8933 75.1331 45.0267 74.1864 45.88C73.2531 46.7333 72.0731 47.16 70.6464 47.16C69.6597 47.16 68.7997 46.9733 68.0664 46.6C67.3464 46.2133 66.7864 45.68 66.3864 45C65.5864 43.68 65.1864 42.0267 65.1864 40.04C65.1864 38.76 65.3397 37.64 65.6464 36.68C65.9664 35.7067 66.3997 34.94 66.9464 34.38C68.0131 33.26 69.3331 32.7 70.9064 32.7C71.5597 32.7 72.1797 32.8 72.7664 33C73.3664 33.1867 73.8264 33.38 74.1464 33.58C74.4664 33.78 74.8197 34.0333 75.2064 34.34L73.7264 36.54C73.6464 36.46 73.5264 36.3533 73.3664 36.22C73.2197 36.0867 72.9197 35.9133 72.4664 35.7C72.0131 35.4867 71.5731 35.38 71.1464 35.38ZM70.7264 40.42C70.1131 40.42 69.5931 40.6067 69.1664 40.98C68.7531 41.34 68.5464 41.8133 68.5464 42.4C68.5464 42.9867 68.7464 43.4933 69.1464 43.92C69.5464 44.3333 70.0464 44.54 70.6464 44.54C71.2464 44.54 71.7464 44.3533 72.1464 43.98C72.5464 43.6067 72.7464 43.1267 72.7464 42.54C72.7464 41.94 72.5664 41.44 72.2064 41.04C71.8464 40.6267 71.3531 40.42 70.7264 40.42ZM97.2598 47H94.4766V38.3965L94.3203 39.002C93.9688 40.3757 93.653 41.4141 93.373 42.1172L91.4395 47H89.3203L87.3574 42.0781C87.0775 41.362 86.778 40.3561 86.459 39.0605L86.2734 38.3965V47H83.5V36.082H87.6016L89.4766 40.7402C89.6719 41.2415 89.8509 41.8177 90.0137 42.4688C90.1829 43.1198 90.2969 43.6764 90.3555 44.1387C90.5703 43.1621 90.7363 42.4622 90.8535 42.0391C90.9772 41.6094 91.1107 41.2155 91.2539 40.8574C91.3971 40.4993 92.0449 38.9076 93.1973 36.082H97.2598V47ZM107.328 47L106.752 45.5156H106.674C106.173 46.1471 105.655 46.5866 105.121 46.834C104.594 47.0749 103.904 47.1953 103.051 47.1953C102.003 47.1953 101.176 46.8958 100.57 46.2969C99.9714 45.6979 99.6719 44.8451 99.6719 43.7383C99.6719 42.5794 100.076 41.7266 100.883 41.1797C101.697 40.6263 102.921 40.3203 104.555 40.2617L106.449 40.2031V39.7246C106.449 38.6178 105.883 38.0645 104.75 38.0645C103.878 38.0645 102.852 38.3281 101.674 38.8555L100.688 36.8438C101.944 36.1862 103.337 35.8574 104.867 35.8574C106.332 35.8574 107.455 36.1764 108.236 36.8145C109.018 37.4525 109.408 38.4225 109.408 39.7246V47H107.328ZM106.449 41.9414L105.297 41.9805C104.431 42.0065 103.786 42.1628 103.363 42.4492C102.94 42.7357 102.729 43.1719 102.729 43.7578C102.729 44.5977 103.21 45.0176 104.174 45.0176C104.864 45.0176 105.414 44.819 105.824 44.4219C106.241 44.0247 106.449 43.4974 106.449 42.8398V41.9414ZM115.365 36.082V40.3984C115.365 40.8542 115.29 41.9674 115.141 43.7383L120.18 36.082H123.764V47H120.883V42.6445C120.883 41.8698 120.948 40.776 121.078 39.3633L116.059 47H112.484V36.082H115.365ZM122.885 31.3848C122.761 32.6022 122.302 33.4909 121.508 34.0508C120.714 34.6042 119.568 34.8809 118.07 34.8809C116.527 34.8809 115.385 34.6139 114.643 34.0801C113.907 33.5462 113.493 32.6478 113.402 31.3848H116.068C116.114 32.0553 116.28 32.5273 116.566 32.8008C116.859 33.0677 117.38 33.2012 118.129 33.2012C118.786 33.2012 119.275 33.0547 119.594 32.7617C119.919 32.4622 120.118 32.0033 120.189 31.3848H122.885ZM135.869 40.48C136.696 39.64 137.283 38.9733 137.629 38.48C137.989 37.9733 138.169 37.4867 138.169 37.02C138.169 36.5533 138.016 36.1667 137.709 35.86C137.403 35.54 137.009 35.38 136.529 35.38C135.649 35.38 134.816 36.0067 134.029 37.26L131.529 35.78C132.183 34.7667 132.896 34 133.669 33.48C134.456 32.96 135.449 32.7 136.649 32.7C137.863 32.7 138.923 33.0867 139.829 33.86C140.749 34.62 141.209 35.66 141.209 36.98C141.209 37.7 141.023 38.3933 140.649 39.06C140.289 39.7133 139.616 40.5533 138.629 41.58L136.109 44.2H141.629V47H131.769V44.68L135.869 40.48ZM147.559 36.56C147.119 37.4133 146.899 38.54 146.899 39.94C146.899 41.34 147.119 42.4667 147.559 43.32C147.999 44.1733 148.685 44.6 149.619 44.6C150.552 44.6 151.239 44.1733 151.679 43.32C152.119 42.4667 152.339 41.34 152.339 39.94C152.339 38.54 152.119 37.4133 151.679 36.56C151.239 35.7067 150.552 35.28 149.619 35.28C148.685 35.28 147.999 35.7067 147.559 36.56ZM149.619 47.16C147.685 47.16 146.239 46.5067 145.279 45.2C144.319 43.88 143.839 42.1267 143.839 39.94C143.839 37.74 144.319 35.9867 145.279 34.68C146.239 33.36 147.685 32.7 149.619 32.7C151.552 32.7 152.999 33.36 153.959 34.68C154.919 35.9867 155.399 37.74 155.399 39.94C155.399 42.1267 154.919 43.88 153.959 45.2C152.999 46.5067 151.552 47.16 149.619 47.16ZM161.787 40.48C162.614 39.64 163.201 38.9733 163.547 38.48C163.907 37.9733 164.087 37.4867 164.087 37.02C164.087 36.5533 163.934 36.1667 163.627 35.86C163.321 35.54 162.927 35.38 162.447 35.38C161.567 35.38 160.734 36.0067 159.947 37.26L157.447 35.78C158.101 34.7667 158.814 34 159.587 33.48C160.374 32.96 161.367 32.7 162.567 32.7C163.781 32.7 164.841 33.0867 165.747 33.86C166.667 34.62 167.127 35.66 167.127 36.98C167.127 37.7 166.941 38.3933 166.567 39.06C166.207 39.7133 165.534 40.5533 164.547 41.58L162.027 44.2H167.547V47H157.687V44.68L161.787 40.48ZM173.477 36.56C173.037 37.4133 172.817 38.54 172.817 39.94C172.817 41.34 173.037 42.4667 173.477 43.32C173.917 44.1733 174.603 44.6 175.537 44.6C176.47 44.6 177.157 44.1733 177.597 43.32C178.037 42.4667 178.257 41.34 178.257 39.94C178.257 38.54 178.037 37.4133 177.597 36.56C177.157 35.7067 176.47 35.28 175.537 35.28C174.603 35.28 173.917 35.7067 173.477 36.56ZM175.537 47.16C173.603 47.16 172.157 46.5067 171.197 45.2C170.237 43.88 169.757 42.1267 169.757 39.94C169.757 37.74 170.237 35.9867 171.197 34.68C172.157 33.36 173.603 32.7 175.537 32.7C177.47 32.7 178.917 33.36 179.877 34.68C180.837 35.9867 181.317 37.74 181.317 39.94C181.317 42.1267 180.837 43.88 179.877 45.2C178.917 46.5067 177.47 47.16 175.537 47.16Z" fill="#FF9100"/>
<path d="M31.0625 13.8125H27.25C26.7318 13.8125 26.3125 14.2318 26.3125 14.75V15.6875H24.4375V14.75C24.4375 14.2318 24.0182 13.8125 23.5 13.8125H17.875C17.3568 13.8125 16.9375 14.2318 16.9375 14.75V15.6875H15.0625V14.75C15.0625 14.2318 14.6432 13.8125 14.125 13.8125H8.5C7.98181 13.8125 7.5625 14.2318 7.5625 14.75V15.6875H5.6875V14.75C5.6875 14.2318 5.26819 13.8125 4.75 13.8125H0.9375C0.419312 13.8125 0 14.2318 0 14.75V41.0625C0 41.5807 0.419312 42 0.9375 42H31.0625C31.5807 42 32 41.5807 32 41.0625V14.75C32 14.2318 31.5807 13.8125 31.0625 13.8125Z" fill="url(#paint0_linear)"/>
<path d="M8.5 10H4.75C4.23181 10 3.8125 10.4193 3.8125 10.9375V16.625C3.8125 17.1432 4.23181 17.5625 4.75 17.5625H8.5C9.01819 17.5625 9.4375 17.1432 9.4375 16.625V10.9375C9.4375 10.4193 9.01819 10 8.5 10ZM14.125 17.5625H17.875C18.3932 17.5625 18.8125 17.1432 18.8125 16.625V10.9375C18.8125 10.4193 18.3932 10 17.875 10H14.125C13.6068 10 13.1875 10.4193 13.1875 10.9375V16.625C13.1875 17.1432 13.6068 17.5625 14.125 17.5625ZM27.25 10H23.5C22.9818 10 22.5625 10.4193 22.5625 10.9375V16.625C22.5625 17.1432 22.9818 17.5625 23.5 17.5625H27.25C27.7682 17.5625 28.1875 17.1432 28.1875 16.625V10.9375C28.1875 10.4193 27.7682 10 27.25 10ZM11.3125 36.3125H15.0625V32.5625H11.3125V36.3125ZM11.3125 30.6875H15.0625V26.9375H11.3125V30.6875ZM5.6875 35.375C5.6875 35.8999 6.09994 36.3125 6.625 36.3125H9.4375V32.5625H5.6875V35.375ZM5.6875 30.6875H9.4375V26.9375H5.6875V30.6875ZM5.6875 22.25V25.0625H9.4375V21.3125H6.625C6.09994 21.3125 5.6875 21.7249 5.6875 22.25ZM22.5625 36.3125H25.375C25.9001 36.3125 26.3125 35.8999 26.3125 35.375V32.5625H22.5625V36.3125ZM22.5625 30.6875H26.3125V26.9375H22.5625V30.6875ZM25.375 21.3125H22.5625V25.0625H26.3125V22.25C26.3125 21.7249 25.9001 21.3125 25.375 21.3125ZM16.9375 30.6875H20.6875V26.9375H16.9375V30.6875ZM16.9375 36.3125H20.6875V32.5625H16.9375V36.3125ZM11.3125 25.0625H15.0625V21.3125H11.3125V25.0625ZM16.9375 25.0625H20.6875V21.3125H16.9375V25.0625Z" fill="url(#paint1_linear)"/>
<defs>
<linearGradient id="paint0_linear" x1="16" y1="42" x2="16" y2="13.8125" gradientUnits="userSpaceOnUse">
<stop stop-color="#FD5900"/>
<stop offset="1" stop-color="#FFDE00"/>
</linearGradient>
<linearGradient id="paint1_linear" x1="16" y1="36.3125" x2="16" y2="10" gradientUnits="userSpaceOnUse">
<stop stop-color="#FFE59A"/>
<stop offset="1" stop-color="#FFFFD5"/>
</linearGradient>
</defs>
</svg>
