<svg width="157" height="52" viewBox="0 0 157 52" fill="none" xmlns="http://www.w3.org/2000/svg">
<path d="M65.666 18H63.443V10.467H61.175C61.103 11.601 60.992 12.579 60.842 13.401C60.692 14.217 60.512 14.91 60.302 15.48C60.098 16.05 59.867 16.509 59.609 16.857C59.357 17.199 59.087 17.466 58.799 17.658C58.511 17.85 58.214 17.976 57.908 18.036C57.602 18.102 57.293 18.135 56.981 18.135C56.651 18.135 56.408 18.105 56.252 18.045C56.102 17.991 56.027 17.913 56.027 17.811V16.425H56.558C56.756 16.425 56.954 16.395 57.152 16.335C57.35 16.275 57.542 16.152 57.728 15.966C57.914 15.78 58.091 15.516 58.259 15.174C58.427 14.826 58.58 14.37 58.718 13.806C58.862 13.236 58.988 12.54 59.096 11.718C59.204 10.896 59.288 9.912 59.348 8.766H65.666V18ZM71.9418 8.622C72.6258 8.622 73.2468 8.733 73.8048 8.955C74.3688 9.177 74.8488 9.492 75.2448 9.9C75.6468 10.308 75.9558 10.806 76.1718 11.394C76.3878 11.982 76.4958 12.639 76.4958 13.365C76.4958 14.097 76.3878 14.757 76.1718 15.345C75.9558 15.933 75.6468 16.434 75.2448 16.848C74.8488 17.262 74.3688 17.58 73.8048 17.802C73.2468 18.024 72.6258 18.135 71.9418 18.135C71.2518 18.135 70.6248 18.024 70.0608 17.802C69.4968 17.58 69.0138 17.262 68.6118 16.848C68.2158 16.434 67.9068 15.933 67.6848 15.345C67.4688 14.757 67.3608 14.097 67.3608 13.365C67.3608 12.639 67.4688 11.982 67.6848 11.394C67.9068 10.806 68.2158 10.308 68.6118 9.9C69.0138 9.492 69.4968 9.177 70.0608 8.955C70.6248 8.733 71.2518 8.622 71.9418 8.622ZM71.9418 16.425C72.7098 16.425 73.2768 16.167 73.6428 15.651C74.0148 15.135 74.2008 14.379 74.2008 13.383C74.2008 12.387 74.0148 11.628 73.6428 11.106C73.2768 10.584 72.7098 10.323 71.9418 10.323C71.1618 10.323 70.5828 10.587 70.2048 11.115C69.8328 11.637 69.6468 12.393 69.6468 13.383C69.6468 14.373 69.8328 15.129 70.2048 15.651C70.5828 16.167 71.1618 16.425 71.9418 16.425ZM83.7088 9.351C83.8168 9.177 83.9638 9.036 84.1498 8.928C84.3358 8.82 84.5338 8.766 84.7438 8.766H86.4898L84.3388 12.195C84.1888 12.435 84.0358 12.63 83.8798 12.78C83.7238 12.924 83.5348 13.038 83.3128 13.122C83.6128 13.212 83.8588 13.347 84.0508 13.527C84.2428 13.701 84.4168 13.923 84.5728 14.193L86.7328 18H85.1938C84.8038 18 84.5008 17.934 84.2848 17.802C84.0688 17.67 83.8858 17.481 83.7358 17.235L82.3768 14.679C82.2568 14.457 82.1008 14.292 81.9088 14.184C81.7228 14.076 81.5038 14.022 81.2518 14.022H80.4148V18H78.1918V8.766H80.4148V12.573H81.1348C81.3868 12.573 81.5878 12.528 81.7378 12.438C81.8938 12.342 82.0258 12.198 82.1338 12.006L83.7088 9.351ZM92.8432 14.058C92.2012 14.088 91.6612 14.145 91.2232 14.229C90.7852 14.307 90.4342 14.409 90.1702 14.535C89.9062 14.661 89.7172 14.808 89.6032 14.976C89.4892 15.144 89.4322 15.327 89.4322 15.525C89.4322 15.915 89.5462 16.194 89.7742 16.362C90.0082 16.53 90.3112 16.614 90.6832 16.614C91.1392 16.614 91.5322 16.533 91.8622 16.371C92.1982 16.203 92.5252 15.951 92.8432 15.615V14.058ZM87.7492 10.053C88.8112 9.081 90.0892 8.595 91.5832 8.595C92.1232 8.595 92.6062 8.685 93.0322 8.865C93.4582 9.039 93.8182 9.285 94.1122 9.603C94.4062 9.915 94.6282 10.29 94.7782 10.728C94.9342 11.166 95.0122 11.646 95.0122 12.168V18H94.0042C93.7942 18 93.6322 17.97 93.5182 17.91C93.4042 17.844 93.3142 17.715 93.2482 17.523L93.0502 16.857C92.8162 17.067 92.5882 17.253 92.3662 17.415C92.1442 17.571 91.9132 17.703 91.6732 17.811C91.4332 17.919 91.1752 18 90.8992 18.054C90.6292 18.114 90.3292 18.144 89.9992 18.144C89.6092 18.144 89.2492 18.093 88.9192 17.991C88.5892 17.883 88.3042 17.724 88.0642 17.514C87.8242 17.304 87.6382 17.043 87.5062 16.731C87.3742 16.419 87.3082 16.056 87.3082 15.642C87.3082 15.408 87.3472 15.177 87.4252 14.949C87.5032 14.715 87.6292 14.493 87.8032 14.283C87.9832 14.073 88.2142 13.875 88.4962 13.689C88.7782 13.503 89.1232 13.341 89.5312 13.203C89.9452 13.065 90.4252 12.954 90.9712 12.87C91.5172 12.78 92.1412 12.726 92.8432 12.708V12.168C92.8432 11.55 92.7112 11.094 92.4472 10.8C92.1832 10.5 91.8022 10.35 91.3042 10.35C90.9442 10.35 90.6442 10.392 90.4042 10.476C90.1702 10.56 89.9632 10.656 89.7832 10.764C89.6032 10.866 89.4382 10.959 89.2882 11.043C89.1442 11.127 88.9822 11.169 88.8022 11.169C88.6462 11.169 88.5142 11.13 88.4062 11.052C88.2982 10.968 88.2112 10.872 88.1452 10.764L87.7492 10.053ZM106.853 16.353V20.43C106.853 20.634 106.793 20.796 106.673 20.916C106.553 21.036 106.4 21.096 106.214 21.096H104.828V18H97.1058V8.766H99.3288V16.353H102.929V8.766H105.152V16.353H106.853ZM116.548 8.766V18H114.325V12.609C114.325 12.471 114.331 12.321 114.343 12.159C114.361 11.991 114.382 11.823 114.406 11.655C114.286 11.931 114.154 12.174 114.01 12.384C113.998 12.396 113.938 12.48 113.83 12.636C113.722 12.786 113.581 12.981 113.407 13.221C113.239 13.461 113.047 13.734 112.831 14.04C112.615 14.34 112.396 14.646 112.174 14.958C111.652 15.696 111.061 16.53 110.401 17.46C110.317 17.586 110.206 17.709 110.068 17.829C109.936 17.949 109.783 18.009 109.609 18.009H108.25V8.775H110.473V14.166C110.473 14.304 110.464 14.457 110.446 14.625C110.434 14.787 110.416 14.952 110.392 15.12C110.524 14.826 110.656 14.583 110.788 14.391C110.794 14.379 110.851 14.298 110.959 14.148C111.067 13.998 111.205 13.803 111.373 13.563C111.547 13.323 111.742 13.053 111.958 12.753C112.174 12.447 112.393 12.135 112.615 11.817C113.137 11.079 113.731 10.245 114.397 9.315C114.481 9.183 114.592 9.06 114.73 8.946C114.868 8.826 115.024 8.766 115.198 8.766H116.548ZM123.559 12.924V10.215H122.353C122.071 10.215 121.837 10.257 121.651 10.341C121.465 10.419 121.312 10.524 121.192 10.656C121.078 10.782 120.997 10.926 120.949 11.088C120.901 11.25 120.877 11.409 120.877 11.565C120.877 11.991 121.018 12.324 121.3 12.564C121.588 12.804 121.972 12.924 122.452 12.924H123.559ZM125.674 8.766V18H123.559V14.292H123.172C122.992 14.292 122.842 14.31 122.722 14.346C122.608 14.376 122.509 14.421 122.425 14.481C122.347 14.535 122.278 14.604 122.218 14.688C122.164 14.772 122.107 14.865 122.047 14.967L120.571 17.235C120.499 17.361 120.421 17.472 120.337 17.568C120.259 17.664 120.166 17.745 120.058 17.811C119.956 17.871 119.833 17.919 119.689 17.955C119.551 17.985 119.383 18 119.185 18H117.646L119.977 14.742C120.103 14.514 120.25 14.331 120.418 14.193C120.586 14.055 120.784 13.944 121.012 13.86C120.58 13.782 120.211 13.662 119.905 13.5C119.605 13.332 119.362 13.14 119.176 12.924C118.99 12.702 118.855 12.465 118.771 12.213C118.687 11.961 118.645 11.712 118.645 11.466C118.645 11.124 118.711 10.791 118.843 10.467C118.981 10.143 119.197 9.855 119.491 9.603C119.785 9.351 120.163 9.15 120.625 9C121.087 8.844 121.642 8.766 122.29 8.766H125.674Z" fill="#565656"/>
<path d="M65.1016 36.082V38.3184H60.541V47H57.5625V36.082H65.1016ZM73.1289 47.1953C71.8464 47.1953 70.8405 46.7298 70.1113 45.7988H69.9551C70.0592 46.7103 70.1113 47.2376 70.1113 47.3809V51.8047H67.1328V36.082H69.5547L69.9746 37.498H70.1113C70.8079 36.4173 71.8398 35.877 73.207 35.877C74.4961 35.877 75.5052 36.375 76.2344 37.3711C76.9635 38.3672 77.3281 39.7507 77.3281 41.5215C77.3281 42.6868 77.1556 43.6992 76.8105 44.5586C76.472 45.418 75.987 46.0723 75.3555 46.5215C74.724 46.9707 73.9818 47.1953 73.1289 47.1953ZM72.25 38.2598C71.5143 38.2598 70.9772 38.4876 70.6387 38.9434C70.3001 39.3926 70.1243 40.138 70.1113 41.1797V41.502C70.1113 42.6738 70.2839 43.5137 70.6289 44.0215C70.9805 44.5293 71.5339 44.7832 72.2891 44.7832C73.6237 44.7832 74.291 43.6829 74.291 41.4824C74.291 40.4082 74.125 39.6042 73.793 39.0703C73.4674 38.5299 72.9531 38.2598 72.25 38.2598ZM79.8466 46.66C79.5132 46.3133 79.3466 45.8933 79.3466 45.4C79.3466 44.9067 79.5132 44.4933 79.8466 44.16C80.1932 43.8133 80.6132 43.64 81.1066 43.64C81.5999 43.64 82.0132 43.8133 82.3466 44.16C82.6932 44.4933 82.8666 44.9067 82.8666 45.4C82.8666 45.8933 82.6932 46.3133 82.3466 46.66C82.0132 46.9933 81.5999 47.16 81.1066 47.16C80.6132 47.16 80.1932 46.9933 79.8466 46.66ZM97.123 35.0371C95.9837 35.0371 95.1016 35.4668 94.4766 36.3262C93.8516 37.179 93.5391 38.3704 93.5391 39.9004C93.5391 43.084 94.7337 44.6758 97.123 44.6758C98.1257 44.6758 99.3398 44.4251 100.766 43.9238V46.4629C99.5938 46.9512 98.2852 47.1953 96.8398 47.1953C94.763 47.1953 93.1745 46.5671 92.0742 45.3105C90.974 44.0475 90.4238 42.2376 90.4238 39.8809C90.4238 38.3965 90.694 37.0977 91.2344 35.9844C91.7747 34.8646 92.5495 34.0085 93.5586 33.416C94.5742 32.8171 95.7624 32.5176 97.123 32.5176C98.5098 32.5176 99.903 32.8529 101.303 33.5234L100.326 35.9844C99.7923 35.7305 99.2552 35.5091 98.7148 35.3203C98.1745 35.1315 97.6439 35.0371 97.123 35.0371ZM105.951 41.5215C105.951 42.6022 106.127 43.4193 106.479 43.9727C106.837 44.526 107.416 44.8027 108.217 44.8027C109.011 44.8027 109.581 44.5293 109.926 43.9824C110.277 43.429 110.453 42.6087 110.453 41.5215C110.453 40.4408 110.277 39.6302 109.926 39.0898C109.574 38.5495 108.998 38.2793 108.197 38.2793C107.403 38.2793 106.83 38.5495 106.479 39.0898C106.127 39.6237 105.951 40.4342 105.951 41.5215ZM113.5 41.5215C113.5 43.2988 113.031 44.6888 112.094 45.6914C111.156 46.694 109.851 47.1953 108.178 47.1953C107.13 47.1953 106.205 46.9674 105.404 46.5117C104.604 46.0495 103.988 45.3887 103.559 44.5293C103.129 43.6699 102.914 42.6673 102.914 41.5215C102.914 39.7376 103.38 38.3509 104.311 37.3613C105.242 36.3717 106.55 35.877 108.236 35.877C109.285 35.877 110.209 36.1048 111.01 36.5605C111.811 37.0163 112.426 37.6706 112.855 38.5234C113.285 39.3763 113.5 40.3757 113.5 41.5215ZM123.939 36.0234C125.762 36.1732 127.191 36.7363 128.227 37.7129C129.262 38.6895 129.779 39.9655 129.779 41.541C129.779 43.1491 129.268 44.4382 128.246 45.4082C127.224 46.3717 125.788 46.9284 123.939 47.0781V51.8047H121.176V47.0781C119.333 46.9089 117.891 46.3327 116.85 45.3496C115.814 44.36 115.297 43.0905 115.297 41.541C115.297 39.8939 115.798 38.5951 116.801 37.6445C117.803 36.6875 119.262 36.1471 121.176 36.0234V31.8047H123.939V36.0234ZM118.363 41.541C118.363 42.459 118.614 43.2077 119.115 43.7871C119.617 44.36 120.303 44.7051 121.176 44.8223V38.2598C120.336 38.3704 119.656 38.7253 119.135 39.3242C118.62 39.9232 118.363 40.6621 118.363 41.541ZM126.723 41.541C126.723 40.6816 126.479 39.959 125.99 39.373C125.502 38.7806 124.818 38.4225 123.939 38.2988V44.8223C124.805 44.7051 125.486 44.3568 125.98 43.7773C126.475 43.1979 126.723 42.4525 126.723 41.541ZM135.131 36.082V40.3984C135.131 40.8542 135.056 41.9674 134.906 43.7383L139.945 36.082H143.529V47H140.648V42.6445C140.648 41.8698 140.714 40.776 140.844 39.3633L135.824 47H132.25V36.082H135.131ZM148.324 47H145.102L148.041 42.6836C147.338 42.3906 146.804 41.9674 146.439 41.4141C146.081 40.8607 145.902 40.2096 145.902 39.4609C145.902 38.4062 146.296 37.5794 147.084 36.9805C147.878 36.3815 148.959 36.082 150.326 36.082H155.404V47H152.426V42.9375H150.785L148.324 47ZM148.822 39.4805C148.822 39.9362 149.001 40.2943 149.359 40.5547C149.717 40.8086 150.186 40.9355 150.766 40.9355H152.426V38.1816H150.385C149.896 38.1816 149.512 38.3021 149.232 38.543C148.959 38.7773 148.822 39.0898 148.822 39.4805Z" fill="#FF9100"/>
<g clip-path="url(#clip0)">
<path d="M16 42C15.6926 42 15.4049 41.8494 15.2297 41.5968C12.9651 38.3318 11.0064 35.8288 9.43262 33.8176C5.80869 29.1865 3.8125 26.6355 3.8125 22.1875C3.8125 15.4673 9.27981 10 16 10C22.7202 10 28.1875 15.4673 28.1875 22.1875C28.1875 26.6309 26.1776 29.2013 22.5287 33.8676C20.9617 35.8716 19.0116 38.3655 16.7703 41.5968C16.5951 41.8494 16.3074 42 16 42Z" fill="url(#paint0_linear)"/>
<path d="M16 28.75C12.3814 28.75 9.4375 25.8061 9.4375 22.1875C9.4375 18.5689 12.3814 15.625 16 15.625C19.6186 15.625 22.5625 18.5689 22.5625 22.1875C22.5625 25.8061 19.6186 28.75 16 28.75Z" fill="url(#paint1_linear)"/>
</g>
<defs>
<linearGradient id="paint0_linear" x1="16" y1="42" x2="16" y2="10" gradientUnits="userSpaceOnUse">
<stop stop-color="#FD3A84"/>
<stop offset="1" stop-color="#FFA68D"/>
</linearGradient>
<linearGradient id="paint1_linear" x1="16" y1="28.75" x2="16" y2="15.625" gradientUnits="userSpaceOnUse">
<stop stop-color="#FFC2CC"/>
<stop offset="1" stop-color="#FFF2F4"/>
</linearGradient>
<clipPath id="clip0">
<rect width="32" height="32" fill="white" transform="translate(0 10)"/>
</clipPath>
</defs>
</svg>
