<svg width="133" height="52" viewBox="0 0 133 52" fill="none" xmlns="http://www.w3.org/2000/svg">
<path d="M66.845 16.353V20.43C66.845 20.634 66.785 20.796 66.665 20.916C66.545 21.036 66.392 21.096 66.206 21.096H64.82V18H57.098V8.766H59.321V16.353H62.921V8.766H65.144V16.353H66.845ZM74.0333 12.321C74.0333 12.033 73.9913 11.763 73.9073 11.511C73.8293 11.253 73.7093 11.028 73.5473 10.836C73.3853 10.644 73.1783 10.494 72.9263 10.386C72.6803 10.272 72.3923 10.215 72.0623 10.215C71.4203 10.215 70.9133 10.398 70.5413 10.764C70.1753 11.13 69.9413 11.649 69.8393 12.321H74.0333ZM69.7943 13.662C69.8303 14.136 69.9143 14.547 70.0463 14.895C70.1783 15.237 70.3523 15.522 70.5683 15.75C70.7843 15.972 71.0393 16.14 71.3333 16.254C71.6333 16.362 71.9633 16.416 72.3233 16.416C72.6833 16.416 72.9923 16.374 73.2503 16.29C73.5143 16.206 73.7423 16.113 73.9343 16.011C74.1323 15.909 74.3033 15.816 74.4473 15.732C74.5973 15.648 74.7413 15.606 74.8793 15.606C75.0653 15.606 75.2033 15.675 75.2933 15.813L75.9323 16.623C75.6863 16.911 75.4103 17.154 75.1043 17.352C74.7983 17.544 74.4773 17.7 74.1413 17.82C73.8113 17.934 73.4723 18.015 73.1243 18.063C72.7823 18.111 72.4493 18.135 72.1253 18.135C71.4833 18.135 70.8863 18.03 70.3343 17.82C69.7823 17.604 69.3023 17.289 68.8943 16.875C68.4863 16.455 68.1653 15.939 67.9313 15.327C67.6973 14.709 67.5803 13.995 67.5803 13.185C67.5803 12.555 67.6823 11.964 67.8863 11.412C68.0903 10.854 68.3813 10.371 68.7593 9.963C69.1433 9.549 69.6083 9.222 70.1543 8.982C70.7063 8.742 71.3273 8.622 72.0173 8.622C72.5993 8.622 73.1363 8.715 73.6283 8.901C74.1203 9.087 74.5433 9.36 74.8973 9.72C75.2513 10.074 75.5273 10.512 75.7253 11.034C75.9293 11.55 76.0313 12.141 76.0313 12.807C76.0313 13.143 75.9953 13.371 75.9233 13.491C75.8513 13.605 75.7133 13.662 75.5093 13.662H69.7943ZM85.7456 8.766V18H83.5226V13.914H79.9226V18H77.6996V8.766H79.9226V12.267H83.5226V8.766H85.7456ZM92.8256 14.058C92.1836 14.088 91.6436 14.145 91.2056 14.229C90.7676 14.307 90.4166 14.409 90.1526 14.535C89.8886 14.661 89.6996 14.808 89.5856 14.976C89.4716 15.144 89.4146 15.327 89.4146 15.525C89.4146 15.915 89.5286 16.194 89.7566 16.362C89.9906 16.53 90.2936 16.614 90.6656 16.614C91.1216 16.614 91.5146 16.533 91.8446 16.371C92.1806 16.203 92.5076 15.951 92.8256 15.615V14.058ZM87.7316 10.053C88.7936 9.081 90.0716 8.595 91.5656 8.595C92.1056 8.595 92.5886 8.685 93.0146 8.865C93.4406 9.039 93.8006 9.285 94.0946 9.603C94.3886 9.915 94.6106 10.29 94.7606 10.728C94.9166 11.166 94.9946 11.646 94.9946 12.168V18H93.9866C93.7766 18 93.6146 17.97 93.5006 17.91C93.3866 17.844 93.2966 17.715 93.2306 17.523L93.0326 16.857C92.7986 17.067 92.5706 17.253 92.3486 17.415C92.1266 17.571 91.8956 17.703 91.6556 17.811C91.4156 17.919 91.1576 18 90.8816 18.054C90.6116 18.114 90.3116 18.144 89.9816 18.144C89.5916 18.144 89.2316 18.093 88.9016 17.991C88.5716 17.883 88.2866 17.724 88.0466 17.514C87.8066 17.304 87.6206 17.043 87.4886 16.731C87.3566 16.419 87.2906 16.056 87.2906 15.642C87.2906 15.408 87.3296 15.177 87.4076 14.949C87.4856 14.715 87.6116 14.493 87.7856 14.283C87.9656 14.073 88.1966 13.875 88.4786 13.689C88.7606 13.503 89.1056 13.341 89.5136 13.203C89.9276 13.065 90.4076 12.954 90.9536 12.87C91.4996 12.78 92.1236 12.726 92.8256 12.708V12.168C92.8256 11.55 92.6936 11.094 92.4296 10.8C92.1656 10.5 91.7846 10.35 91.2866 10.35C90.9266 10.35 90.6266 10.392 90.3866 10.476C90.1526 10.56 89.9456 10.656 89.7656 10.764C89.5856 10.866 89.4206 10.959 89.2706 11.043C89.1266 11.127 88.9646 11.169 88.7846 11.169C88.6286 11.169 88.4966 11.13 88.3886 11.052C88.2806 10.968 88.1936 10.872 88.1276 10.764L87.7316 10.053Z" fill="#565656"/>
<path d="M66.12 33.02V35.72H60.6V38.06C61.0133 37.94 61.4867 37.88 62.02 37.88C63.3667 37.88 64.5267 38.2867 65.5 39.1C66.4733 39.9133 66.96 41.0133 66.96 42.4C66.96 43.7733 66.4533 44.9133 65.44 45.82C64.44 46.7133 63.2 47.16 61.72 47.16C59.8267 47.16 58.2467 46.46 56.98 45.06L58.62 42.78C58.74 42.9 58.9 43.0467 59.1 43.22C59.3 43.3933 59.6667 43.6267 60.2 43.92C60.7333 44.2 61.2667 44.34 61.8 44.34C62.3333 44.34 62.8067 44.18 63.22 43.86C63.6333 43.54 63.84 43.0667 63.84 42.44C63.84 41.8133 63.6133 41.3333 63.16 41C62.72 40.6533 62.1467 40.48 61.44 40.48C60.7333 40.48 59.9133 40.7333 58.98 41.24L57.68 39.84V33.02H66.12ZM72.7541 36.56C72.3141 37.4133 72.0941 38.54 72.0941 39.94C72.0941 41.34 72.3141 42.4667 72.7541 43.32C73.1941 44.1733 73.8807 44.6 74.8141 44.6C75.7474 44.6 76.4341 44.1733 76.8741 43.32C77.3141 42.4667 77.5341 41.34 77.5341 39.94C77.5341 38.54 77.3141 37.4133 76.8741 36.56C76.4341 35.7067 75.7474 35.28 74.8141 35.28C73.8807 35.28 73.1941 35.7067 72.7541 36.56ZM74.8141 47.16C72.8807 47.16 71.4341 46.5067 70.4741 45.2C69.5141 43.88 69.0341 42.1267 69.0341 39.94C69.0341 37.74 69.5141 35.9867 70.4741 34.68C71.4341 33.36 72.8807 32.7 74.8141 32.7C76.7474 32.7 78.1941 33.36 79.1541 34.68C80.1141 35.9867 80.5941 37.74 80.5941 39.94C80.5941 42.1267 80.1141 43.88 79.1541 45.2C78.1941 46.5067 76.7474 47.16 74.8141 47.16ZM86.5627 36.56C86.1227 37.4133 85.9027 38.54 85.9027 39.94C85.9027 41.34 86.1227 42.4667 86.5627 43.32C87.0027 44.1733 87.6893 44.6 88.6227 44.6C89.556 44.6 90.2427 44.1733 90.6827 43.32C91.1227 42.4667 91.3427 41.34 91.3427 39.94C91.3427 38.54 91.1227 37.4133 90.6827 36.56C90.2427 35.7067 89.556 35.28 88.6227 35.28C87.6893 35.28 87.0027 35.7067 86.5627 36.56ZM88.6227 47.16C86.6893 47.16 85.2427 46.5067 84.2827 45.2C83.3227 43.88 82.8427 42.1267 82.8427 39.94C82.8427 37.74 83.3227 35.9867 84.2827 34.68C85.2427 33.36 86.6893 32.7 88.6227 32.7C90.556 32.7 92.0027 33.36 92.9627 34.68C93.9227 35.9867 94.4027 37.74 94.4027 39.94C94.4027 42.1267 93.9227 43.88 92.9627 45.2C92.0027 46.5067 90.556 47.16 88.6227 47.16ZM112.143 47H109.164V38.3184H106.42C106.212 40.7598 105.958 42.5827 105.658 43.7871C105.359 44.985 104.958 45.8542 104.457 46.3945C103.962 46.9284 103.311 47.1953 102.504 47.1953C101.814 47.1953 101.247 47.0911 100.805 46.8828V44.5C101.124 44.6302 101.443 44.6953 101.762 44.6953C102.133 44.6953 102.442 44.4284 102.689 43.8945C102.943 43.3607 103.168 42.472 103.363 41.2285C103.565 39.9785 103.738 38.263 103.881 36.082H112.143V47ZM125.355 38.9434C125.355 39.5293 125.17 40.0306 124.799 40.4473C124.434 40.8574 123.894 41.1211 123.178 41.2383V41.3164C123.952 41.4076 124.564 41.6745 125.014 42.1172C125.469 42.5534 125.697 43.0938 125.697 43.7383C125.697 44.7995 125.281 45.61 124.447 46.1699C123.614 46.7233 122.423 47 120.873 47H115.277V36.082H120.873C122.37 36.082 123.49 36.3262 124.232 36.8145C124.981 37.2962 125.355 38.0059 125.355 38.9434ZM122.611 43.582C122.611 43.1523 122.445 42.8431 122.113 42.6543C121.781 42.459 121.283 42.3613 120.619 42.3613H118.256V44.9395H120.678C121.309 44.9395 121.788 44.8223 122.113 44.5879C122.445 44.347 122.611 44.0117 122.611 43.582ZM122.338 39.1777C122.338 38.5137 121.811 38.1816 120.756 38.1816H118.256V40.3398H120.414C121.046 40.3398 121.524 40.2487 121.85 40.0664C122.175 39.8841 122.338 39.5879 122.338 39.1777ZM128.128 46.66C127.794 46.3133 127.628 45.8933 127.628 45.4C127.628 44.9067 127.794 44.4933 128.128 44.16C128.474 43.8133 128.894 43.64 129.388 43.64C129.881 43.64 130.294 43.8133 130.628 44.16C130.974 44.4933 131.148 44.9067 131.148 45.4C131.148 45.8933 130.974 46.3133 130.628 46.66C130.294 46.9933 129.881 47.16 129.388 47.16C128.894 47.16 128.474 46.9933 128.128 46.66Z" fill="#FF9100"/>
<path d="M4.55625 34.4375H27.4438L32 29.8625V22.1375L27.425 17.5625H4.55625L0 22.1187V29.8813L4.55625 34.4375Z" fill="url(#paint0_linear)"/>
<path d="M0.9375 17.5625C0.412438 17.5625 0 17.9749 0 18.5V22.1187C2.79375 22.8125 5.25 20.3563 4.55625 17.5625H0.9375ZM0 29.8813V33.5C0 34.0249 0.412438 34.4375 0.9375 34.4375H4.55625C5.25 31.6438 2.79375 29.1875 0 29.8813ZM27.4438 34.4375H31.0625C31.5876 34.4375 32 34.0249 32 33.5V29.8625C29.2063 29.1875 26.75 31.6438 27.4438 34.4375ZM31.0625 17.5625H27.425C26.75 20.3563 29.2063 22.8125 32 22.1375V18.5C32 17.9749 31.5876 17.5625 31.0625 17.5625ZM6.5625 25.0625C6.04475 25.0625 5.625 25.4823 5.625 26C5.625 26.5178 6.04475 26.9375 6.5625 26.9375C7.08025 26.9375 7.5 26.5178 7.5 26C7.5 25.4823 7.08025 25.0625 6.5625 25.0625ZM25.4375 25.0625C24.9198 25.0625 24.5 25.4823 24.5 26C24.5 26.5178 24.9198 26.9375 25.4375 26.9375C25.9553 26.9375 26.375 26.5178 26.375 26C26.375 25.4823 25.9553 25.0625 25.4375 25.0625ZM16 17.5625C12.3818 17.5625 9.4375 21.3473 9.4375 26C9.4375 30.6527 12.3818 34.4375 16 34.4375C19.6182 34.4375 22.5625 30.6527 22.5625 26C22.5625 21.3473 19.6182 17.5625 16 17.5625Z" fill="url(#paint1_linear)"/>
<defs>
<linearGradient id="paint0_linear" x1="16" y1="34.4375" x2="16" y2="17.5625" gradientUnits="userSpaceOnUse">
<stop stop-color="#00B59C"/>
<stop offset="1" stop-color="#9CFFAC"/>
</linearGradient>
<linearGradient id="paint1_linear" x1="16" y1="34.4375" x2="16" y2="17.5625" gradientUnits="userSpaceOnUse">
<stop stop-color="#9BFF9D"/>
<stop offset="0.9973" stop-color="#E2FFEA"/>
<stop offset="1" stop-color="#2CAE50"/>
</linearGradient>
</defs>
</svg>
