<svg width="165" height="52" viewBox="0 0 165 52" fill="none" xmlns="http://www.w3.org/2000/svg">
<path d="M65.144 18H62.921V10.413H59.321V18H57.098V8.766H65.144V18ZM71.432 8.622C72.116 8.622 72.737 8.733 73.295 8.955C73.859 9.177 74.339 9.492 74.735 9.9C75.137 10.308 75.446 10.806 75.662 11.394C75.878 11.982 75.986 12.639 75.986 13.365C75.986 14.097 75.878 14.757 75.662 15.345C75.446 15.933 75.137 16.434 74.735 16.848C74.339 17.262 73.859 17.58 73.295 17.802C72.737 18.024 72.116 18.135 71.432 18.135C70.742 18.135 70.115 18.024 69.551 17.802C68.987 17.58 68.504 17.262 68.102 16.848C67.706 16.434 67.397 15.933 67.175 15.345C66.959 14.757 66.851 14.097 66.851 13.365C66.851 12.639 66.959 11.982 67.175 11.394C67.397 10.806 67.706 10.308 68.102 9.9C68.504 9.492 68.987 9.177 69.551 8.955C70.115 8.733 70.742 8.622 71.432 8.622ZM71.432 16.425C72.2 16.425 72.767 16.167 73.133 15.651C73.505 15.135 73.691 14.379 73.691 13.383C73.691 12.387 73.505 11.628 73.133 11.106C72.767 10.584 72.2 10.323 71.432 10.323C70.652 10.323 70.073 10.587 69.695 11.115C69.323 11.637 69.137 12.393 69.137 13.383C69.137 14.373 69.323 15.129 69.695 15.651C70.073 16.167 70.652 16.425 71.432 16.425ZM83.5743 16.416V10.467H81.3063C81.2463 11.241 81.1713 11.94 81.0813 12.564C80.9913 13.182 80.8863 13.734 80.7663 14.22C80.6463 14.706 80.5143 15.129 80.3703 15.489C80.2323 15.849 80.0823 16.158 79.9203 16.416H83.5743ZM87.4263 16.353V20.43C87.4263 20.634 87.3663 20.796 87.2463 20.916C87.1323 21.036 86.9823 21.096 86.7963 21.096H85.4103V18H78.4983V20.466C78.4983 20.622 78.4473 20.766 78.3453 20.898C78.2493 21.03 78.0963 21.096 77.8863 21.096H76.4823V16.416H76.7433C76.9533 16.416 77.1573 16.389 77.3553 16.335C77.5533 16.275 77.7423 16.155 77.9223 15.975C78.1083 15.795 78.2823 15.537 78.4443 15.201C78.6123 14.859 78.7623 14.406 78.8943 13.842C79.0263 13.272 79.1403 12.573 79.2363 11.745C79.3383 10.917 79.4193 9.924 79.4793 8.766H85.7343V16.353H87.4263ZM97.0705 18H94.9285C94.7665 18 94.6345 17.958 94.5325 17.874C94.4365 17.79 94.3555 17.694 94.2895 17.586L92.3365 14.373C92.3065 14.475 92.2705 14.571 92.2285 14.661C92.1925 14.751 92.1505 14.835 92.1025 14.913L90.3745 17.586C90.3085 17.688 90.2275 17.784 90.1315 17.874C90.0355 17.958 89.9155 18 89.7715 18H87.7825L90.9505 13.239L87.9085 8.766H90.0505C90.2125 8.766 90.3325 8.79 90.4105 8.838C90.4885 8.88 90.5575 8.952 90.6175 9.054L92.5525 12.132C92.6185 11.928 92.7115 11.727 92.8315 11.529L94.3885 9.099C94.5205 8.877 94.6915 8.766 94.9015 8.766H96.9445L93.9115 13.14L97.0705 18ZM101.895 8.622C102.579 8.622 103.2 8.733 103.758 8.955C104.322 9.177 104.802 9.492 105.198 9.9C105.6 10.308 105.909 10.806 106.125 11.394C106.341 11.982 106.449 12.639 106.449 13.365C106.449 14.097 106.341 14.757 106.125 15.345C105.909 15.933 105.6 16.434 105.198 16.848C104.802 17.262 104.322 17.58 103.758 17.802C103.2 18.024 102.579 18.135 101.895 18.135C101.205 18.135 100.578 18.024 100.014 17.802C99.4499 17.58 98.9669 17.262 98.5649 16.848C98.1689 16.434 97.8599 15.933 97.6379 15.345C97.4219 14.757 97.3139 14.097 97.3139 13.365C97.3139 12.639 97.4219 11.982 97.6379 11.394C97.8599 10.806 98.1689 10.308 98.5649 9.9C98.9669 9.492 99.4499 9.177 100.014 8.955C100.578 8.733 101.205 8.622 101.895 8.622ZM101.895 16.425C102.663 16.425 103.23 16.167 103.596 15.651C103.968 15.135 104.154 14.379 104.154 13.383C104.154 12.387 103.968 11.628 103.596 11.106C103.23 10.584 102.663 10.323 101.895 10.323C101.115 10.323 100.536 10.587 100.158 11.115C99.7859 11.637 99.5999 12.393 99.5999 13.383C99.5999 14.373 99.7859 15.129 100.158 15.651C100.536 16.167 101.115 16.425 101.895 16.425ZM114.037 16.416V10.467H111.769C111.709 11.241 111.634 11.94 111.544 12.564C111.454 13.182 111.349 13.734 111.229 14.22C111.109 14.706 110.977 15.129 110.833 15.489C110.695 15.849 110.545 16.158 110.383 16.416H114.037ZM117.889 16.353V20.43C117.889 20.634 117.829 20.796 117.709 20.916C117.595 21.036 117.445 21.096 117.259 21.096H115.873V18H108.961V20.466C108.961 20.622 108.91 20.766 108.808 20.898C108.712 21.03 108.559 21.096 108.349 21.096H106.945V16.416H107.206C107.416 16.416 107.62 16.389 107.818 16.335C108.016 16.275 108.205 16.155 108.385 15.975C108.571 15.795 108.745 15.537 108.907 15.201C109.075 14.859 109.225 14.406 109.357 13.842C109.489 13.272 109.603 12.573 109.699 11.745C109.801 10.917 109.882 9.924 109.942 8.766H116.197V16.353H117.889ZM124.104 12.924V10.215H122.898C122.616 10.215 122.382 10.257 122.196 10.341C122.01 10.419 121.857 10.524 121.737 10.656C121.623 10.782 121.542 10.926 121.494 11.088C121.446 11.25 121.422 11.409 121.422 11.565C121.422 11.991 121.563 12.324 121.845 12.564C122.133 12.804 122.517 12.924 122.997 12.924H124.104ZM126.219 8.766V18H124.104V14.292H123.717C123.537 14.292 123.387 14.31 123.267 14.346C123.153 14.376 123.054 14.421 122.97 14.481C122.892 14.535 122.823 14.604 122.763 14.688C122.709 14.772 122.652 14.865 122.592 14.967L121.116 17.235C121.044 17.361 120.966 17.472 120.882 17.568C120.804 17.664 120.711 17.745 120.603 17.811C120.501 17.871 120.378 17.919 120.234 17.955C120.096 17.985 119.928 18 119.73 18H118.191L120.522 14.742C120.648 14.514 120.795 14.331 120.963 14.193C121.131 14.055 121.329 13.944 121.557 13.86C121.125 13.782 120.756 13.662 120.45 13.5C120.15 13.332 119.907 13.14 119.721 12.924C119.535 12.702 119.4 12.465 119.316 12.213C119.232 11.961 119.19 11.712 119.19 11.466C119.19 11.124 119.256 10.791 119.388 10.467C119.526 10.143 119.742 9.855 120.036 9.603C120.33 9.351 120.708 9.15 121.17 9C121.632 8.844 122.187 8.766 122.835 8.766H126.219ZM142.893 16.353V20.43C142.893 20.634 142.833 20.796 142.713 20.916C142.599 21.036 142.449 21.096 142.263 21.096H140.877V18H128.43V8.766H130.653V16.353H133.704V8.766H135.927V16.353H138.978V8.766H141.201V16.353H142.893ZM148.14 9.765C148.488 9.429 148.92 9.156 149.436 8.946C149.952 8.73 150.57 8.622 151.29 8.622C151.86 8.622 152.367 8.691 152.811 8.829C153.255 8.961 153.627 9.144 153.927 9.378C154.233 9.606 154.464 9.87 154.62 10.17C154.782 10.464 154.863 10.773 154.863 11.097C154.863 11.271 154.836 11.454 154.782 11.646C154.734 11.832 154.65 12.015 154.53 12.195C154.416 12.375 154.263 12.543 154.071 12.699C153.879 12.849 153.642 12.978 153.36 13.086C153.864 13.278 154.269 13.56 154.575 13.932C154.887 14.304 155.043 14.763 155.043 15.309C155.043 15.759 154.938 16.158 154.728 16.506C154.524 16.854 154.251 17.151 153.909 17.397C153.567 17.637 153.174 17.82 152.73 17.946C152.292 18.072 151.839 18.135 151.371 18.135C151.107 18.135 150.822 18.111 150.516 18.063C150.216 18.015 149.913 17.934 149.607 17.82C149.301 17.7 149.001 17.544 148.707 17.352C148.413 17.154 148.146 16.911 147.906 16.623L148.545 15.813C148.635 15.675 148.77 15.606 148.95 15.606C149.088 15.606 149.22 15.651 149.346 15.741C149.472 15.825 149.616 15.921 149.778 16.029C149.946 16.131 150.144 16.227 150.372 16.317C150.6 16.401 150.885 16.443 151.227 16.443C151.785 16.443 152.208 16.317 152.496 16.065C152.784 15.813 152.928 15.498 152.928 15.12C152.928 14.748 152.778 14.457 152.478 14.247C152.184 14.037 151.704 13.932 151.038 13.932H149.994V12.483H151.038C151.62 12.483 152.067 12.381 152.379 12.177C152.691 11.973 152.847 11.703 152.847 11.367C152.847 11.061 152.709 10.809 152.433 10.611C152.163 10.413 151.761 10.314 151.227 10.314C150.909 10.314 150.639 10.347 150.417 10.413C150.195 10.479 150.003 10.551 149.841 10.629C149.685 10.701 149.553 10.77 149.445 10.836C149.337 10.902 149.235 10.935 149.139 10.935C149.037 10.935 148.95 10.917 148.878 10.881C148.806 10.839 148.728 10.752 148.644 10.62L148.14 9.765ZM161.662 14.058C161.02 14.088 160.48 14.145 160.042 14.229C159.604 14.307 159.253 14.409 158.989 14.535C158.725 14.661 158.536 14.808 158.422 14.976C158.308 15.144 158.251 15.327 158.251 15.525C158.251 15.915 158.365 16.194 158.593 16.362C158.827 16.53 159.13 16.614 159.502 16.614C159.958 16.614 160.351 16.533 160.681 16.371C161.017 16.203 161.344 15.951 161.662 15.615V14.058ZM156.568 10.053C157.63 9.081 158.908 8.595 160.402 8.595C160.942 8.595 161.425 8.685 161.851 8.865C162.277 9.039 162.637 9.285 162.931 9.603C163.225 9.915 163.447 10.29 163.597 10.728C163.753 11.166 163.831 11.646 163.831 12.168V18H162.823C162.613 18 162.451 17.97 162.337 17.91C162.223 17.844 162.133 17.715 162.067 17.523L161.869 16.857C161.635 17.067 161.407 17.253 161.185 17.415C160.963 17.571 160.732 17.703 160.492 17.811C160.252 17.919 159.994 18 159.718 18.054C159.448 18.114 159.148 18.144 158.818 18.144C158.428 18.144 158.068 18.093 157.738 17.991C157.408 17.883 157.123 17.724 156.883 17.514C156.643 17.304 156.457 17.043 156.325 16.731C156.193 16.419 156.127 16.056 156.127 15.642C156.127 15.408 156.166 15.177 156.244 14.949C156.322 14.715 156.448 14.493 156.622 14.283C156.802 14.073 157.033 13.875 157.315 13.689C157.597 13.503 157.942 13.341 158.35 13.203C158.764 13.065 159.244 12.954 159.79 12.87C160.336 12.78 160.96 12.726 161.662 12.708V12.168C161.662 11.55 161.53 11.094 161.266 10.8C161.002 10.5 160.621 10.35 160.123 10.35C159.763 10.35 159.463 10.392 159.223 10.476C158.989 10.56 158.782 10.656 158.602 10.764C158.422 10.866 158.257 10.959 158.107 11.043C157.963 11.127 157.801 11.169 157.621 11.169C157.465 11.169 157.333 11.13 157.225 11.052C157.117 10.968 157.03 10.872 156.964 10.764L156.568 10.053Z" fill="#565656"/>
<path d="M56.62 33.02H62.28V47H59.28V35.68H56.62V33.02ZM65.4064 42.32V39.66H72.5264V42.32H65.4064ZM80.9511 35.38C80.0844 35.38 79.4111 35.6733 78.9311 36.26C78.4644 36.8333 78.1778 37.62 78.0711 38.62C78.9378 38.06 79.8578 37.78 80.8311 37.78C82.1378 37.78 83.2244 38.2067 84.0911 39.06C84.9711 39.9133 85.4111 41.0533 85.4111 42.48C85.4111 43.8933 84.9378 45.0267 83.9911 45.88C83.0578 46.7333 81.8778 47.16 80.4511 47.16C79.4644 47.16 78.6044 46.9733 77.8711 46.6C77.1511 46.2133 76.5911 45.68 76.1911 45C75.3911 43.68 74.9911 42.0267 74.9911 40.04C74.9911 38.76 75.1444 37.64 75.4511 36.68C75.7711 35.7067 76.2044 34.94 76.7511 34.38C77.8178 33.26 79.1378 32.7 80.7111 32.7C81.3644 32.7 81.9844 32.8 82.5711 33C83.1711 33.1867 83.6311 33.38 83.9511 33.58C84.2711 33.78 84.6244 34.0333 85.0111 34.34L83.5311 36.54C83.4511 36.46 83.3311 36.3533 83.1711 36.22C83.0244 36.0867 82.7244 35.9133 82.2711 35.7C81.8178 35.4867 81.3778 35.38 80.9511 35.38ZM80.5311 40.42C79.9178 40.42 79.3978 40.6067 78.9711 40.98C78.5578 41.34 78.3511 41.8133 78.3511 42.4C78.3511 42.9867 78.5511 43.4933 78.9511 43.92C79.3511 44.3333 79.8511 44.54 80.4511 44.54C81.0511 44.54 81.5511 44.3533 81.9511 43.98C82.3511 43.6067 82.5511 43.1267 82.5511 42.54C82.5511 41.94 82.3711 41.44 82.0111 41.04C81.6511 40.6267 81.1578 40.42 80.5311 40.42ZM100.463 36.082H103.744L99.418 41.3164L104.125 47H100.746L96.2832 41.4629V47H93.3047V36.082H96.2832V41.3848L100.463 36.082ZM115.463 47H112.484V38.3184H109.74C109.532 40.7598 109.278 42.5827 108.979 43.7871C108.679 44.985 108.279 45.8542 107.777 46.3945C107.283 46.9284 106.632 47.1953 105.824 47.1953C105.134 47.1953 104.568 47.0911 104.125 46.8828V44.5C104.444 44.6302 104.763 44.6953 105.082 44.6953C105.453 44.6953 105.762 44.4284 106.01 43.8945C106.264 43.3607 106.488 42.472 106.684 41.2285C106.885 39.9785 107.058 38.263 107.201 36.082H115.463V47ZM125.531 47L124.955 45.5156H124.877C124.376 46.1471 123.858 46.5866 123.324 46.834C122.797 47.0749 122.107 47.1953 121.254 47.1953C120.206 47.1953 119.379 46.8958 118.773 46.2969C118.174 45.6979 117.875 44.8451 117.875 43.7383C117.875 42.5794 118.279 41.7266 119.086 41.1797C119.9 40.6263 121.124 40.3203 122.758 40.2617L124.652 40.2031V39.7246C124.652 38.6178 124.086 38.0645 122.953 38.0645C122.081 38.0645 121.055 38.3281 119.877 38.8555L118.891 36.8438C120.147 36.1862 121.54 35.8574 123.07 35.8574C124.535 35.8574 125.658 36.1764 126.439 36.8145C127.221 37.4525 127.611 38.4225 127.611 39.7246V47H125.531ZM124.652 41.9414L123.5 41.9805C122.634 42.0065 121.99 42.1628 121.566 42.4492C121.143 42.7357 120.932 43.1719 120.932 43.7578C120.932 44.5977 121.413 45.0176 122.377 45.0176C123.067 45.0176 123.617 44.819 124.027 44.4219C124.444 44.0247 124.652 43.4974 124.652 42.8398V41.9414ZM135.121 47.1953C131.723 47.1953 130.023 45.3301 130.023 41.5996C130.023 39.7441 130.486 38.3281 131.41 37.3516C132.335 36.3685 133.66 35.877 135.385 35.877C136.648 35.877 137.781 36.1243 138.783 36.6191L137.904 38.9238C137.436 38.735 136.999 38.582 136.596 38.4648C136.192 38.3411 135.788 38.2793 135.385 38.2793C133.835 38.2793 133.061 39.3796 133.061 41.5801C133.061 43.7155 133.835 44.7832 135.385 44.7832C135.958 44.7832 136.488 44.7083 136.977 44.5586C137.465 44.4023 137.953 44.1615 138.441 43.8359V46.3848C137.96 46.6908 137.471 46.9023 136.977 47.0195C136.488 47.1367 135.87 47.1953 135.121 47.1953Z" fill="#FF9100"/>
<path d="M8.5 17.5625C4.88181 17.5625 1.9375 20.5068 1.9375 24.125C1.9375 27.7432 4.88181 30.6875 8.5 30.6875C12.1182 30.6875 15.0625 27.7432 15.0625 24.125C15.0625 20.5068 12.1182 17.5625 8.5 17.5625ZM23.5 10C19.8818 10 16.9375 12.9443 16.9375 16.5625C16.9375 20.1807 19.8818 23.125 23.5 23.125C27.1182 23.125 30.0625 20.1807 30.0625 16.5625C30.0625 12.9443 27.1182 10 23.5 10Z" fill="url(#paint0_linear)"/>
<path d="M8.5 30.6875C3.84731 30.6875 0 34.4723 0 39.125V41.0625C0 41.5807 0.481812 42 1 42H16C16.5182 42 16.9375 41.5807 16.9375 41.0625V39.125C16.9375 34.4723 13.1527 30.6875 8.5 30.6875ZM23.5 23.125C18.8473 23.125 15.0625 26.9098 15.0625 31.5625V33.5C15.0625 34.0182 15.4818 34.4375 16 34.4375H31C31.5182 34.4375 32 34.0182 32 33.5V31.5625C32 26.9098 28.1527 23.125 23.5 23.125Z" fill="url(#paint1_linear)"/>
<defs>
<linearGradient id="paint0_linear" x1="16" y1="30.6875" x2="16" y2="10" gradientUnits="userSpaceOnUse">
<stop stop-color="#ADDCFF"/>
<stop offset="1" stop-color="#CBE9FF"/>
</linearGradient>
<linearGradient id="paint1_linear" x1="16" y1="42" x2="16" y2="23.125" gradientUnits="userSpaceOnUse">
<stop stop-color="#5558FF"/>
<stop offset="1" stop-color="#00C0FF"/>
</linearGradient>
</defs>
</svg>
