<svg width="176" height="34" viewBox="0 0 176 34" fill="none" xmlns="http://www.w3.org/2000/svg">
<path d="M8.696 8.208C8.776 8.20267 8.848 8.232 8.912 8.296L9.392 8.808C9.088 9.16 8.71467 9.43467 8.272 9.632C7.83467 9.824 7.30667 9.92 6.688 9.92C6.16533 9.92 5.688 9.82933 5.256 9.648C4.82933 9.46667 4.46133 9.21333 4.152 8.888C3.848 8.56267 3.61067 8.176 3.44 7.728C3.27467 7.28 3.192 6.78933 3.192 6.256C3.192 5.71733 3.28267 5.224 3.464 4.776C3.64533 4.32267 3.89867 3.936 4.224 3.616C4.54933 3.29067 4.93333 3.04 5.376 2.864C5.824 2.68267 6.30933 2.592 6.832 2.592C7.41333 2.592 7.904 2.68267 8.304 2.864C8.70933 3.04 9.064 3.27733 9.368 3.576L9 4.096C8.97333 4.128 8.93867 4.16 8.896 4.192C8.85333 4.224 8.80267 4.24 8.744 4.24C8.66933 4.24 8.58933 4.21067 8.504 4.152C8.424 4.09333 8.31733 4.02933 8.184 3.96C8.05067 3.88533 7.88 3.81867 7.672 3.76C7.46933 3.696 7.21333 3.664 6.904 3.664C6.52533 3.664 6.18667 3.72533 5.888 3.848C5.58933 3.96533 5.33333 4.136 5.12 4.36C4.90667 4.584 4.744 4.856 4.632 5.176C4.52 5.496 4.464 5.856 4.464 6.256C4.464 6.66667 4.52 7.03467 4.632 7.36C4.74933 7.68 4.90933 7.94933 5.112 8.168C5.31467 8.38667 5.55467 8.55467 5.832 8.672C6.11467 8.784 6.42133 8.84 6.752 8.84C7.02933 8.84 7.26133 8.81867 7.448 8.776C7.63467 8.73333 7.79733 8.68267 7.936 8.624C8.08 8.56 8.208 8.49067 8.32 8.416C8.43733 8.34133 8.56267 8.272 8.696 8.208ZM0.808 6.272C0.808 5.73333 0.877333 5.216 1.016 4.72C1.15467 4.21867 1.352 3.752 1.608 3.32C1.864 2.88267 2.168 2.488 2.52 2.136C2.87733 1.77867 3.272 1.472 3.704 1.216C4.136 0.96 4.6 0.762666 5.096 0.624C5.592 0.485333 6.10933 0.415999 6.648 0.415999C7.18667 0.415999 7.704 0.485333 8.2 0.624C8.70133 0.762666 9.168 0.96 9.6 1.216C10.032 1.472 10.4267 1.77867 10.784 2.136C11.1413 2.488 11.4453 2.88267 11.696 3.32C11.952 3.752 12.1493 4.21867 12.288 4.72C12.4267 5.216 12.496 5.73333 12.496 6.272C12.496 6.80533 12.4267 7.32267 12.288 7.824C12.1493 8.32 11.952 8.784 11.696 9.216C11.4453 9.648 11.1413 10.0427 10.784 10.4C10.4267 10.752 10.032 11.056 9.6 11.312C9.168 11.568 8.70133 11.7653 8.2 11.904C7.704 12.0427 7.18667 12.112 6.648 12.112C6.10933 12.112 5.592 12.0427 5.096 11.904C4.6 11.7653 4.136 11.568 3.704 11.312C3.272 11.056 2.87733 10.752 2.52 10.4C2.168 10.0427 1.864 9.648 1.608 9.216C1.352 8.784 1.15467 8.32 1.016 7.824C0.877333 7.328 0.808 6.81067 0.808 6.272ZM1.616 6.272C1.616 6.74667 1.67467 7.20267 1.792 7.64C1.90933 8.07733 2.07467 8.488 2.288 8.872C2.50667 9.25067 2.768 9.59467 3.072 9.904C3.38133 10.2133 3.72 10.48 4.088 10.704C4.46133 10.9227 4.864 11.0933 5.296 11.216C5.728 11.3333 6.17867 11.392 6.648 11.392C7.11733 11.392 7.568 11.3333 8 11.216C8.43733 11.0933 8.84267 10.9227 9.216 10.704C9.59467 10.48 9.936 10.2133 10.24 9.904C10.5493 9.59467 10.8133 9.25067 11.032 8.872C11.2507 8.488 11.4187 8.07733 11.536 7.64C11.6587 7.20267 11.72 6.74667 11.72 6.272C11.72 5.55733 11.5867 4.888 11.32 4.264C11.0587 3.63467 10.6987 3.088 10.24 2.624C9.78667 2.15467 9.25067 1.78667 8.632 1.52C8.01333 1.248 7.352 1.112 6.648 1.112C6.17867 1.112 5.728 1.17333 5.296 1.296C4.864 1.41867 4.46133 1.592 4.088 1.816C3.72 2.03467 3.38133 2.30133 3.072 2.616C2.768 2.93067 2.50667 3.28 2.288 3.664C2.07467 4.04267 1.90933 4.45333 1.792 4.896C1.67467 5.33867 1.616 5.79733 1.616 6.272ZM25.2866 10.648C25.4413 10.648 25.564 10.6933 25.6546 10.784C25.7453 10.8747 25.7906 10.992 25.7906 11.136V12H18.1426V11.512C18.1426 11.4107 18.164 11.3067 18.2066 11.2C18.2493 11.0933 18.316 10.9947 18.4066 10.904L22.0786 7.216C22.3826 6.90667 22.66 6.61067 22.9106 6.328C23.1613 6.04 23.3746 5.752 23.5506 5.464C23.7266 5.176 23.8626 4.88533 23.9586 4.592C24.0546 4.29333 24.1026 3.976 24.1026 3.64C24.1026 3.304 24.0493 3.01067 23.9426 2.76C23.836 2.504 23.6893 2.29333 23.5026 2.128C23.3213 1.96267 23.1053 1.84 22.8546 1.76C22.604 1.67467 22.3346 1.632 22.0466 1.632C21.7533 1.632 21.484 1.67467 21.2386 1.76C20.9933 1.84533 20.7746 1.96533 20.5826 2.12C20.396 2.26933 20.2386 2.448 20.1106 2.656C19.9826 2.864 19.892 3.09333 19.8386 3.344C19.7746 3.53067 19.6866 3.656 19.5746 3.72C19.468 3.77867 19.316 3.79467 19.1186 3.768L18.3746 3.64C18.4493 3.11733 18.5933 2.656 18.8066 2.256C19.0253 1.85067 19.2973 1.512 19.6226 1.24C19.9533 0.968 20.3293 0.762666 20.7506 0.624C21.172 0.479999 21.628 0.407999 22.1186 0.407999C22.604 0.407999 23.0573 0.479999 23.4786 0.624C23.9 0.767999 24.2653 0.978666 24.5746 1.256C24.884 1.528 25.1266 1.86133 25.3026 2.256C25.4786 2.65067 25.5666 3.09867 25.5666 3.6C25.5666 4.02667 25.5026 4.424 25.3746 4.792C25.2466 5.15467 25.0733 5.50133 24.8546 5.832C24.636 6.16267 24.3826 6.48533 24.0946 6.8C23.812 7.11467 23.5106 7.432 23.1906 7.752L20.1666 10.84C20.38 10.7813 20.596 10.736 20.8146 10.704C21.0333 10.6667 21.244 10.648 21.4466 10.648H25.2866ZM35.4719 6.272C35.4719 7.27467 35.3625 8.144 35.1439 8.88C34.9305 9.61067 34.6372 10.216 34.2639 10.696C33.8905 11.176 33.4479 11.5333 32.9359 11.768C32.4292 12.0027 31.8852 12.12 31.3039 12.12C30.7172 12.12 30.1705 12.0027 29.6639 11.768C29.1625 11.5333 28.7252 11.176 28.3519 10.696C27.9785 10.216 27.6852 9.61067 27.4719 8.88C27.2585 8.144 27.1519 7.27467 27.1519 6.272C27.1519 5.26933 27.2585 4.4 27.4719 3.664C27.6852 2.928 27.9785 2.32 28.3519 1.84C28.7252 1.35467 29.1625 0.994666 29.6639 0.759999C30.1705 0.525332 30.7172 0.407999 31.3039 0.407999C31.8852 0.407999 32.4292 0.525332 32.9359 0.759999C33.4479 0.994666 33.8905 1.35467 34.2639 1.84C34.6372 2.32 34.9305 2.928 35.1439 3.664C35.3625 4.4 35.4719 5.26933 35.4719 6.272ZM33.9919 6.272C33.9919 5.39733 33.9172 4.664 33.7679 4.072C33.6239 3.47467 33.4265 2.99467 33.1759 2.632C32.9305 2.26933 32.6452 2.01067 32.3199 1.856C31.9945 1.696 31.6559 1.616 31.3039 1.616C30.9519 1.616 30.6132 1.696 30.2879 1.856C29.9625 2.01067 29.6772 2.26933 29.4319 2.632C29.1865 2.99467 28.9892 3.47467 28.8399 4.072C28.6959 4.664 28.6239 5.39733 28.6239 6.272C28.6239 7.14667 28.6959 7.88 28.8399 8.472C28.9892 9.064 29.1865 9.54133 29.4319 9.904C29.6772 10.2667 29.9625 10.528 30.2879 10.688C30.6132 10.8427 30.9519 10.92 31.3039 10.92C31.6559 10.92 31.9945 10.8427 32.3199 10.688C32.6452 10.528 32.9305 10.2667 33.1759 9.904C33.4265 9.54133 33.6239 9.064 33.7679 8.472C33.9172 7.88 33.9919 7.14667 33.9919 6.272ZM44.0971 10.912V12H37.9531V10.912H40.4091V3.096C40.4091 2.86133 40.4171 2.624 40.4331 2.384L38.3931 4.136C38.3238 4.19467 38.2545 4.232 38.1851 4.248C38.1158 4.25867 38.0518 4.25867 37.9931 4.248C37.9345 4.23733 37.8785 4.216 37.8251 4.184C37.7771 4.152 37.7398 4.11733 37.7131 4.08L37.2651 3.464L40.6811 0.511999H41.8411V10.912H44.0971ZM49.8584 10.944C50.2424 10.944 50.589 10.8827 50.8984 10.76C51.213 10.6373 51.4797 10.4667 51.6984 10.248C51.9224 10.0293 52.093 9.77067 52.2104 9.472C52.333 9.17333 52.3944 8.848 52.3944 8.496C52.3944 8.12267 52.3357 7.78667 52.2184 7.488C52.101 7.184 51.933 6.928 51.7144 6.72C51.501 6.50667 51.245 6.344 50.9464 6.232C50.6477 6.12 50.3197 6.064 49.9624 6.064C49.5784 6.064 49.2317 6.13067 48.9224 6.264C48.613 6.392 48.349 6.568 48.1304 6.792C47.917 7.01067 47.7517 7.26667 47.6344 7.56C47.5224 7.848 47.4664 8.14933 47.4664 8.464C47.4664 8.832 47.5197 9.168 47.6264 9.472C47.733 9.776 47.8877 10.0373 48.0904 10.256C48.2984 10.4747 48.549 10.6453 48.8424 10.768C49.141 10.8853 49.4797 10.944 49.8584 10.944ZM49.0264 4.832C48.925 4.96 48.8264 5.08533 48.7304 5.208C48.6397 5.32533 48.5517 5.44267 48.4664 5.56C48.7384 5.37333 49.037 5.22933 49.3624 5.128C49.6877 5.02667 50.0424 4.976 50.4264 4.976C50.8904 4.976 51.3277 5.05333 51.7384 5.208C52.149 5.35733 52.5064 5.57867 52.8104 5.872C53.1197 6.16 53.365 6.51733 53.5464 6.944C53.7277 7.36533 53.8184 7.848 53.8184 8.392C53.8184 8.92 53.7224 9.41067 53.5304 9.864C53.3384 10.3173 53.069 10.712 52.7224 11.048C52.381 11.384 51.9677 11.648 51.4824 11.84C51.0024 12.032 50.4717 12.128 49.8904 12.128C49.3144 12.128 48.7917 12.0373 48.3224 11.856C47.853 11.6693 47.453 11.408 47.1224 11.072C46.797 10.7307 46.5437 10.32 46.3624 9.84C46.1864 9.35467 46.0984 8.81333 46.0984 8.216C46.0984 7.71467 46.2077 7.18133 46.4264 6.616C46.6504 6.04533 47.005 5.43733 47.4904 4.792L50.4024 0.879999C50.477 0.783999 50.5784 0.703999 50.7064 0.639999C50.8397 0.570666 50.9917 0.535999 51.1624 0.535999H52.4264L49.0264 4.832ZM55.5156 6.6H59.4676V7.808H55.5156V6.6ZM68.3491 10.648C68.5038 10.648 68.6265 10.6933 68.7171 10.784C68.8078 10.8747 68.8531 10.992 68.8531 11.136V12H61.2051V11.512C61.2051 11.4107 61.2265 11.3067 61.2691 11.2C61.3118 11.0933 61.3785 10.9947 61.4691 10.904L65.1411 7.216C65.4451 6.90667 65.7225 6.61067 65.9731 6.328C66.2238 6.04 66.4371 5.752 66.6131 5.464C66.7891 5.176 66.9251 4.88533 67.0211 4.592C67.1171 4.29333 67.1651 3.976 67.1651 3.64C67.1651 3.304 67.1118 3.01067 67.0051 2.76C66.8985 2.504 66.7518 2.29333 66.5651 2.128C66.3838 1.96267 66.1678 1.84 65.9171 1.76C65.6665 1.67467 65.3971 1.632 65.1091 1.632C64.8158 1.632 64.5465 1.67467 64.3011 1.76C64.0558 1.84533 63.8371 1.96533 63.6451 2.12C63.4585 2.26933 63.3011 2.448 63.1731 2.656C63.0451 2.864 62.9545 3.09333 62.9011 3.344C62.8371 3.53067 62.7491 3.656 62.6371 3.72C62.5305 3.77867 62.3785 3.79467 62.1811 3.768L61.4371 3.64C61.5118 3.11733 61.6558 2.656 61.8691 2.256C62.0878 1.85067 62.3598 1.512 62.6851 1.24C63.0158 0.968 63.3918 0.762666 63.8131 0.624C64.2345 0.479999 64.6905 0.407999 65.1811 0.407999C65.6665 0.407999 66.1198 0.479999 66.5411 0.624C66.9625 0.767999 67.3278 0.978666 67.6371 1.256C67.9465 1.528 68.1891 1.86133 68.3651 2.256C68.5411 2.65067 68.6291 3.09867 68.6291 3.6C68.6291 4.02667 68.5651 4.424 68.4371 4.792C68.3091 5.15467 68.1358 5.50133 67.9171 5.832C67.6985 6.16267 67.4451 6.48533 67.1571 6.8C66.8745 7.11467 66.5731 7.432 66.2531 7.752L63.2291 10.84C63.4425 10.7813 63.6585 10.736 63.8771 10.704C64.0958 10.6667 64.3065 10.648 64.5091 10.648H68.3491ZM78.5344 6.272C78.5344 7.27467 78.425 8.144 78.2064 8.88C77.993 9.61067 77.6997 10.216 77.3264 10.696C76.953 11.176 76.5104 11.5333 75.9984 11.768C75.4917 12.0027 74.9477 12.12 74.3664 12.12C73.7797 12.12 73.233 12.0027 72.7264 11.768C72.225 11.5333 71.7877 11.176 71.4144 10.696C71.041 10.216 70.7477 9.61067 70.5344 8.88C70.321 8.144 70.2144 7.27467 70.2144 6.272C70.2144 5.26933 70.321 4.4 70.5344 3.664C70.7477 2.928 71.041 2.32 71.4144 1.84C71.7877 1.35467 72.225 0.994666 72.7264 0.759999C73.233 0.525332 73.7797 0.407999 74.3664 0.407999C74.9477 0.407999 75.4917 0.525332 75.9984 0.759999C76.5104 0.994666 76.953 1.35467 77.3264 1.84C77.6997 2.32 77.993 2.928 78.2064 3.664C78.425 4.4 78.5344 5.26933 78.5344 6.272ZM77.0544 6.272C77.0544 5.39733 76.9797 4.664 76.8304 4.072C76.6864 3.47467 76.489 2.99467 76.2384 2.632C75.993 2.26933 75.7077 2.01067 75.3824 1.856C75.057 1.696 74.7184 1.616 74.3664 1.616C74.0144 1.616 73.6757 1.696 73.3504 1.856C73.025 2.01067 72.7397 2.26933 72.4944 2.632C72.249 2.99467 72.0517 3.47467 71.9024 4.072C71.7584 4.664 71.6864 5.39733 71.6864 6.272C71.6864 7.14667 71.7584 7.88 71.9024 8.472C72.0517 9.064 72.249 9.54133 72.4944 9.904C72.7397 10.2667 73.025 10.528 73.3504 10.688C73.6757 10.8427 74.0144 10.92 74.3664 10.92C74.7184 10.92 75.057 10.8427 75.3824 10.688C75.7077 10.528 75.993 10.2667 76.2384 9.904C76.489 9.54133 76.6864 9.064 76.8304 8.472C76.9797 7.88 77.0544 7.14667 77.0544 6.272ZM86.9116 10.648C87.0663 10.648 87.189 10.6933 87.2796 10.784C87.3703 10.8747 87.4156 10.992 87.4156 11.136V12H79.7676V11.512C79.7676 11.4107 79.789 11.3067 79.8316 11.2C79.8743 11.0933 79.941 10.9947 80.0316 10.904L83.7036 7.216C84.0076 6.90667 84.285 6.61067 84.5356 6.328C84.7863 6.04 84.9996 5.752 85.1756 5.464C85.3516 5.176 85.4876 4.88533 85.5836 4.592C85.6796 4.29333 85.7276 3.976 85.7276 3.64C85.7276 3.304 85.6743 3.01067 85.5676 2.76C85.461 2.504 85.3143 2.29333 85.1276 2.128C84.9463 1.96267 84.7303 1.84 84.4796 1.76C84.229 1.67467 83.9596 1.632 83.6716 1.632C83.3783 1.632 83.109 1.67467 82.8636 1.76C82.6183 1.84533 82.3996 1.96533 82.2076 2.12C82.021 2.26933 81.8636 2.448 81.7356 2.656C81.6076 2.864 81.517 3.09333 81.4636 3.344C81.3996 3.53067 81.3116 3.656 81.1996 3.72C81.093 3.77867 80.941 3.79467 80.7436 3.768L79.9996 3.64C80.0743 3.11733 80.2183 2.656 80.4316 2.256C80.6503 1.85067 80.9223 1.512 81.2476 1.24C81.5783 0.968 81.9543 0.762666 82.3756 0.624C82.797 0.479999 83.253 0.407999 83.7436 0.407999C84.229 0.407999 84.6823 0.479999 85.1036 0.624C85.525 0.767999 85.8903 0.978666 86.1996 1.256C86.509 1.528 86.7516 1.86133 86.9276 2.256C87.1036 2.65067 87.1916 3.09867 87.1916 3.6C87.1916 4.02667 87.1276 4.424 86.9996 4.792C86.8716 5.15467 86.6983 5.50133 86.4796 5.832C86.261 6.16267 86.0076 6.48533 85.7196 6.8C85.437 7.11467 85.1356 7.432 84.8156 7.752L81.7916 10.84C82.005 10.7813 82.221 10.736 82.4396 10.704C82.6583 10.6667 82.869 10.648 83.0716 10.648H86.9116ZM97.0969 6.272C97.0969 7.27467 96.9875 8.144 96.7689 8.88C96.5555 9.61067 96.2622 10.216 95.8889 10.696C95.5155 11.176 95.0729 11.5333 94.5609 11.768C94.0542 12.0027 93.5102 12.12 92.9289 12.12C92.3422 12.12 91.7955 12.0027 91.2889 11.768C90.7875 11.5333 90.3502 11.176 89.9769 10.696C89.6035 10.216 89.3102 9.61067 89.0969 8.88C88.8835 8.144 88.7769 7.27467 88.7769 6.272C88.7769 5.26933 88.8835 4.4 89.0969 3.664C89.3102 2.928 89.6035 2.32 89.9769 1.84C90.3502 1.35467 90.7875 0.994666 91.2889 0.759999C91.7955 0.525332 92.3422 0.407999 92.9289 0.407999C93.5102 0.407999 94.0542 0.525332 94.5609 0.759999C95.0729 0.994666 95.5155 1.35467 95.8889 1.84C96.2622 2.32 96.5555 2.928 96.7689 3.664C96.9875 4.4 97.0969 5.26933 97.0969 6.272ZM95.6169 6.272C95.6169 5.39733 95.5422 4.664 95.3929 4.072C95.2489 3.47467 95.0515 2.99467 94.8009 2.632C94.5555 2.26933 94.2702 2.01067 93.9449 1.856C93.6195 1.696 93.2809 1.616 92.9289 1.616C92.5769 1.616 92.2382 1.696 91.9129 1.856C91.5875 2.01067 91.3022 2.26933 91.0569 2.632C90.8115 2.99467 90.6142 3.47467 90.4649 4.072C90.3209 4.664 90.2489 5.39733 90.2489 6.272C90.2489 7.14667 90.3209 7.88 90.4649 8.472C90.6142 9.064 90.8115 9.54133 91.0569 9.904C91.3022 10.2667 91.5875 10.528 91.9129 10.688C92.2382 10.8427 92.5769 10.92 92.9289 10.92C93.2809 10.92 93.6195 10.8427 93.9449 10.688C94.2702 10.528 94.5555 10.2667 94.8009 9.904C95.0515 9.54133 95.2489 9.064 95.3929 8.472C95.5422 7.88 95.6169 7.14667 95.6169 6.272ZM102.672 6.6H106.624V7.808H102.672V6.6ZM119.031 2.328C118.983 2.408 118.93 2.46933 118.871 2.512C118.818 2.54933 118.751 2.568 118.671 2.568C118.58 2.568 118.474 2.52267 118.351 2.432C118.228 2.34133 118.074 2.24267 117.887 2.136C117.706 2.024 117.484 1.92267 117.223 1.832C116.967 1.74133 116.655 1.696 116.287 1.696C115.94 1.696 115.634 1.744 115.367 1.84C115.106 1.93067 114.884 2.056 114.703 2.216C114.527 2.376 114.394 2.56533 114.303 2.784C114.212 2.99733 114.167 3.22933 114.167 3.48C114.167 3.8 114.244 4.06667 114.399 4.28C114.559 4.488 114.767 4.66667 115.023 4.816C115.284 4.96533 115.578 5.096 115.903 5.208C116.234 5.31467 116.57 5.42667 116.911 5.544C117.258 5.66133 117.594 5.79467 117.919 5.944C118.25 6.088 118.543 6.272 118.799 6.496C119.06 6.72 119.268 6.99467 119.423 7.32C119.583 7.64533 119.663 8.04533 119.663 8.52C119.663 9.02133 119.578 9.49333 119.407 9.936C119.236 10.3733 118.986 10.7547 118.655 11.08C118.33 11.4053 117.927 11.6613 117.447 11.848C116.972 12.0347 116.431 12.128 115.823 12.128C115.076 12.128 114.399 11.9947 113.791 11.728C113.183 11.456 112.663 11.0907 112.231 10.632L112.679 9.896C112.722 9.83733 112.772 9.78933 112.831 9.752C112.895 9.70933 112.964 9.688 113.039 9.688C113.108 9.688 113.186 9.71733 113.271 9.776C113.362 9.82933 113.463 9.89867 113.575 9.984C113.687 10.0693 113.815 10.1627 113.959 10.264C114.103 10.3653 114.266 10.4587 114.447 10.544C114.634 10.6293 114.844 10.7013 115.079 10.76C115.314 10.8133 115.578 10.84 115.871 10.84C116.239 10.84 116.567 10.7893 116.855 10.688C117.143 10.5867 117.386 10.4453 117.583 10.264C117.786 10.0773 117.94 9.856 118.047 9.6C118.154 9.344 118.207 9.05867 118.207 8.744C118.207 8.39733 118.127 8.11467 117.967 7.896C117.812 7.672 117.607 7.48533 117.351 7.336C117.095 7.18667 116.802 7.06133 116.471 6.96C116.14 6.85333 115.804 6.74667 115.463 6.64C115.122 6.528 114.786 6.4 114.455 6.256C114.124 6.112 113.831 5.92533 113.575 5.696C113.319 5.46667 113.111 5.18133 112.951 4.84C112.796 4.49333 112.719 4.06667 112.719 3.56C112.719 3.15467 112.796 2.76267 112.951 2.384C113.111 2.00533 113.34 1.66933 113.639 1.376C113.943 1.08267 114.314 0.848 114.751 0.672C115.194 0.495999 115.7 0.407999 116.271 0.407999C116.911 0.407999 117.492 0.509333 118.015 0.712C118.543 0.914666 119.007 1.208 119.407 1.592L119.031 2.328ZM124.888 3.768C125.48 3.768 126.013 3.86667 126.488 4.064C126.962 4.26133 127.368 4.54133 127.704 4.904C128.04 5.26667 128.296 5.70667 128.472 6.224C128.653 6.736 128.744 7.30933 128.744 7.944C128.744 8.584 128.653 9.16 128.472 9.672C128.296 10.184 128.04 10.6213 127.704 10.984C127.368 11.3467 126.962 11.6267 126.488 11.824C126.013 12.016 125.48 12.112 124.888 12.112C124.29 12.112 123.752 12.016 123.272 11.824C122.797 11.6267 122.392 11.3467 122.056 10.984C121.72 10.6213 121.461 10.184 121.28 9.672C121.104 9.16 121.016 8.584 121.016 7.944C121.016 7.30933 121.104 6.736 121.28 6.224C121.461 5.70667 121.72 5.26667 122.056 4.904C122.392 4.54133 122.797 4.26133 123.272 4.064C123.752 3.86667 124.29 3.768 124.888 3.768ZM124.888 11C125.688 11 126.285 10.7333 126.68 10.2C127.074 9.66133 127.272 8.912 127.272 7.952C127.272 6.98667 127.074 6.23467 126.68 5.696C126.285 5.15733 125.688 4.888 124.888 4.888C124.482 4.888 124.128 4.95733 123.824 5.096C123.525 5.23467 123.274 5.43467 123.072 5.696C122.874 5.95733 122.725 6.28 122.624 6.664C122.528 7.04267 122.48 7.472 122.48 7.952C122.48 8.912 122.677 9.66133 123.072 10.2C123.472 10.7333 124.077 11 124.888 11ZM137.514 5.088V9.952C137.514 10.2933 137.597 10.5467 137.762 10.712C137.927 10.8773 138.138 10.96 138.394 10.96C138.549 10.96 138.679 10.9413 138.786 10.904C138.898 10.8613 138.994 10.816 139.074 10.768C139.154 10.72 139.221 10.6773 139.274 10.64C139.327 10.5973 139.375 10.576 139.418 10.576C139.466 10.576 139.503 10.5867 139.53 10.608C139.562 10.6293 139.594 10.664 139.626 10.712L140.042 11.392C139.797 11.6213 139.501 11.8027 139.154 11.936C138.807 12.064 138.447 12.128 138.074 12.128C137.439 12.128 136.949 11.9493 136.602 11.592C136.261 11.2347 136.09 10.72 136.09 10.048V5.088H132.338V12H130.906V5.112L130.01 5.008C129.898 4.98133 129.805 4.94133 129.73 4.888C129.661 4.82933 129.626 4.74667 129.626 4.64V4.056H130.906V3.272C130.906 2.808 130.97 2.39733 131.098 2.04C131.231 1.67733 131.418 1.37333 131.658 1.128C131.903 0.877333 132.197 0.688 132.538 0.559999C132.879 0.431999 133.263 0.367999 133.69 0.367999C134.053 0.367999 134.386 0.421333 134.69 0.528L134.658 1.24C134.647 1.368 134.575 1.43733 134.442 1.448C134.314 1.45867 134.141 1.464 133.922 1.464C133.677 1.464 133.453 1.496 133.25 1.56C133.053 1.624 132.882 1.728 132.738 1.872C132.594 2.016 132.482 2.20533 132.402 2.44C132.327 2.67467 132.29 2.96533 132.29 3.312V4.056H136.138L136.458 1.536C136.479 1.456 136.517 1.392 136.57 1.344C136.629 1.29067 136.703 1.264 136.794 1.264H137.514V4.056H139.85V5.088H137.514ZM145.997 10.768C146.472 10.768 146.896 10.688 147.269 10.528C147.643 10.368 147.957 10.144 148.213 9.856C148.475 9.568 148.672 9.224 148.805 8.824C148.944 8.424 149.013 7.984 149.013 7.504V0.535999H150.557V7.504C150.557 8.16533 150.451 8.77867 150.237 9.344C150.029 9.90933 149.728 10.4 149.333 10.816C148.944 11.2267 148.467 11.5493 147.901 11.784C147.336 12.0187 146.701 12.136 145.997 12.136C145.293 12.136 144.659 12.0187 144.093 11.784C143.528 11.5493 143.048 11.2267 142.653 10.816C142.259 10.4 141.955 9.90933 141.741 9.344C141.533 8.77867 141.429 8.16533 141.429 7.504V0.535999H142.973V7.496C142.973 7.976 143.04 8.416 143.173 8.816C143.312 9.216 143.509 9.56 143.765 9.848C144.027 10.136 144.344 10.3627 144.717 10.528C145.096 10.688 145.523 10.768 145.997 10.768ZM154.113 5.072C154.289 4.87467 154.475 4.696 154.673 4.536C154.87 4.376 155.078 4.24 155.297 4.128C155.521 4.01067 155.755 3.92267 156.001 3.864C156.251 3.8 156.521 3.768 156.809 3.768C157.251 3.768 157.641 3.84267 157.977 3.992C158.318 4.136 158.601 4.344 158.825 4.616C159.054 4.88267 159.227 5.20533 159.345 5.584C159.462 5.96267 159.521 6.38133 159.521 6.84V12H158.089V6.84C158.089 6.22667 157.947 5.752 157.665 5.416C157.387 5.07467 156.963 4.904 156.393 4.904C155.971 4.904 155.577 5.00533 155.209 5.208C154.846 5.41067 154.51 5.68533 154.201 6.032V12H152.769V3.896H153.625C153.827 3.896 153.953 3.99467 154.001 4.192L154.113 5.072ZM163.195 3.896V12H161.771V3.896H163.195ZM163.499 1.352C163.499 1.49067 163.469 1.62133 163.411 1.744C163.357 1.86133 163.283 1.968 163.187 2.064C163.096 2.15467 162.987 2.22667 162.859 2.28C162.736 2.33333 162.605 2.36 162.467 2.36C162.328 2.36 162.197 2.33333 162.075 2.28C161.957 2.22667 161.853 2.15467 161.763 2.064C161.672 1.968 161.6 1.86133 161.547 1.744C161.493 1.62133 161.467 1.49067 161.467 1.352C161.467 1.21333 161.493 1.08267 161.547 0.959999C161.6 0.831999 161.672 0.722666 161.763 0.631999C161.853 0.536 161.957 0.461333 162.075 0.407999C162.197 0.354666 162.328 0.327999 162.467 0.327999C162.605 0.327999 162.736 0.354666 162.859 0.407999C162.987 0.461333 163.096 0.536 163.187 0.631999C163.283 0.722666 163.357 0.831999 163.411 0.959999C163.469 1.08267 163.499 1.21333 163.499 1.352ZM3.008 24.56H3.592C3.79467 24.56 3.95733 24.536 4.08 24.488C4.20267 24.4347 4.31467 24.3467 4.416 24.224L8.232 19.904C8.33867 19.7653 8.45067 19.6693 8.568 19.616C8.68533 19.5627 8.82933 19.536 9 19.536H10.312L5.944 24.472C5.83733 24.6 5.73333 24.7067 5.632 24.792C5.536 24.872 5.432 24.9387 5.32 24.992C5.464 25.04 5.59467 25.112 5.712 25.208C5.82933 25.2987 5.944 25.4187 6.056 25.568L10.616 31H9.272C9.17067 31 9.08267 30.9947 9.008 30.984C8.93867 30.968 8.87733 30.9467 8.824 30.92C8.77067 30.888 8.72267 30.8533 8.68 30.816C8.64267 30.7733 8.60533 30.7253 8.568 30.672L4.616 26.12C4.50933 25.9867 4.39467 25.8933 4.272 25.84C4.14933 25.7813 3.96267 25.752 3.712 25.752H3.008V31H1.464V19.536H3.008V24.56ZM13.2258 22.896V31H11.8018V22.896H13.2258ZM13.5298 20.352C13.5298 20.4907 13.5004 20.6213 13.4418 20.744C13.3884 20.8613 13.3138 20.968 13.2178 21.064C13.1271 21.1547 13.0178 21.2267 12.8898 21.28C12.7671 21.3333 12.6364 21.36 12.4978 21.36C12.3591 21.36 12.2284 21.3333 12.1058 21.28C11.9884 21.2267 11.8844 21.1547 11.7938 21.064C11.7031 20.968 11.6311 20.8613 11.5778 20.744C11.5244 20.6213 11.4978 20.4907 11.4978 20.352C11.4978 20.2133 11.5244 20.0827 11.5778 19.96C11.6311 19.832 11.7031 19.7227 11.7938 19.632C11.8844 19.536 11.9884 19.4613 12.1058 19.408C12.2284 19.3547 12.3591 19.328 12.4978 19.328C12.6364 19.328 12.7671 19.3547 12.8898 19.408C13.0178 19.4613 13.1271 19.536 13.2178 19.632C13.3138 19.7227 13.3884 19.832 13.4418 19.96C13.5004 20.0827 13.5298 20.2133 13.5298 20.352ZM20.8455 24.824C20.5788 24.4667 20.2908 24.2187 19.9815 24.08C19.6722 23.936 19.3255 23.864 18.9415 23.864C18.1895 23.864 17.6108 24.1333 17.2055 24.672C16.8002 25.2107 16.5975 25.9787 16.5975 26.976C16.5975 27.504 16.6428 27.9573 16.7335 28.336C16.8242 28.7093 16.9575 29.0187 17.1335 29.264C17.3095 29.504 17.5255 29.68 17.7815 29.792C18.0375 29.904 18.3282 29.96 18.6535 29.96C19.1228 29.96 19.5308 29.8533 19.8775 29.64C20.2295 29.4267 20.5522 29.1253 20.8455 28.736V24.824ZM22.2695 19.216V31H21.4215C21.2188 31 21.0908 30.9013 21.0375 30.704L20.9095 29.72C20.5628 30.136 20.1682 30.472 19.7255 30.728C19.2828 30.984 18.7708 31.112 18.1895 31.112C17.7255 31.112 17.3042 31.024 16.9255 30.848C16.5468 30.6667 16.2242 30.4027 15.9575 30.056C15.6908 29.7093 15.4855 29.2773 15.3415 28.76C15.1975 28.2427 15.1255 27.648 15.1255 26.976C15.1255 26.3787 15.2055 25.824 15.3655 25.312C15.5255 24.7947 15.7548 24.3467 16.0535 23.968C16.3522 23.5893 16.7175 23.2933 17.1495 23.08C17.5868 22.8613 18.0775 22.752 18.6215 22.752C19.1175 22.752 19.5415 22.8373 19.8935 23.008C20.2508 23.1733 20.5682 23.4053 20.8455 23.704V19.216H22.2695ZM29.2386 24.232C29.1746 24.3493 29.076 24.408 28.9426 24.408C28.8626 24.408 28.772 24.3787 28.6706 24.32C28.5693 24.2613 28.444 24.1973 28.2946 24.128C28.1506 24.0533 27.9773 23.9867 27.7746 23.928C27.572 23.864 27.332 23.832 27.0546 23.832C26.8146 23.832 26.5986 23.864 26.4066 23.928C26.2146 23.9867 26.0493 24.0693 25.9106 24.176C25.7773 24.2827 25.6733 24.408 25.5986 24.552C25.5293 24.6907 25.4946 24.8427 25.4946 25.008C25.4946 25.216 25.5533 25.3893 25.6706 25.528C25.7933 25.6667 25.9533 25.7867 26.1506 25.888C26.348 25.9893 26.572 26.08 26.8226 26.16C27.0733 26.2347 27.3293 26.3173 27.5906 26.408C27.8573 26.4933 28.116 26.5893 28.3666 26.696C28.6173 26.8027 28.8413 26.936 29.0386 27.096C29.236 27.256 29.3933 27.4533 29.5106 27.688C29.6333 27.9173 29.6946 28.1947 29.6946 28.52C29.6946 28.8933 29.628 29.24 29.4946 29.56C29.3613 29.8747 29.164 30.1493 28.9026 30.384C28.6413 30.6133 28.3213 30.7947 27.9426 30.928C27.564 31.0613 27.1266 31.128 26.6306 31.128C26.0653 31.128 25.5533 31.0373 25.0946 30.856C24.636 30.6693 24.2466 30.432 23.9266 30.144L24.2626 29.6C24.3053 29.5307 24.356 29.4773 24.4146 29.44C24.4733 29.4027 24.548 29.384 24.6386 29.384C24.7346 29.384 24.836 29.4213 24.9426 29.496C25.0493 29.5707 25.1773 29.6533 25.3266 29.744C25.4813 29.8347 25.668 29.9173 25.8866 29.992C26.1053 30.0667 26.3773 30.104 26.7026 30.104C26.98 30.104 27.2226 30.0693 27.4306 30C27.6386 29.9253 27.812 29.8267 27.9506 29.704C28.0893 29.5813 28.1906 29.44 28.2546 29.28C28.324 29.12 28.3586 28.9493 28.3586 28.768C28.3586 28.544 28.2973 28.36 28.1746 28.216C28.0573 28.0667 27.9 27.9413 27.7026 27.84C27.5053 27.7333 27.2786 27.6427 27.0226 27.568C26.772 27.488 26.5133 27.4053 26.2466 27.32C25.9853 27.2347 25.7266 27.1387 25.4706 27.032C25.22 26.92 24.996 26.7813 24.7986 26.616C24.6013 26.4507 24.4413 26.248 24.3186 26.008C24.2013 25.7627 24.1426 25.4667 24.1426 25.12C24.1426 24.8107 24.2066 24.5147 24.3346 24.232C24.4626 23.944 24.6493 23.6933 24.8946 23.48C25.14 23.2613 25.4413 23.088 25.7986 22.96C26.156 22.832 26.564 22.768 27.0226 22.768C27.556 22.768 28.0333 22.8533 28.4546 23.024C28.8813 23.1893 29.2493 23.4187 29.5586 23.712L29.2386 24.232ZM31.2005 30.12C31.2005 29.9813 31.2245 29.8507 31.2725 29.728C31.3258 29.6053 31.3952 29.4987 31.4805 29.408C31.5712 29.3173 31.6778 29.2453 31.8005 29.192C31.9232 29.1387 32.0538 29.112 32.1925 29.112C32.3312 29.112 32.4618 29.1387 32.5845 29.192C32.7072 29.2453 32.8138 29.3173 32.9045 29.408C32.9952 29.4987 33.0672 29.6053 33.1205 29.728C33.1738 29.8507 33.2005 29.9813 33.2005 30.12C33.2005 30.264 33.1738 30.3973 33.1205 30.52C33.0672 30.6373 32.9952 30.7413 32.9045 30.832C32.8138 30.9227 32.7072 30.992 32.5845 31.04C32.4618 31.0933 32.3312 31.12 32.1925 31.12C32.0538 31.12 31.9232 31.0933 31.8005 31.04C31.6778 30.992 31.5712 30.9227 31.4805 30.832C31.3952 30.7413 31.3258 30.6373 31.2725 30.52C31.2245 30.3973 31.2005 30.264 31.2005 30.12ZM45.2083 26.744L43.4083 22.08C43.3549 21.9413 43.2989 21.7813 43.2403 21.6C43.1816 21.4133 43.1256 21.216 43.0723 21.008C42.9603 21.44 42.8456 21.8 42.7283 22.088L40.9283 26.744H45.2083ZM48.4403 31H47.2403C47.1016 31 46.9896 30.9653 46.9043 30.896C46.8189 30.8267 46.7549 30.7387 46.7123 30.632L45.6403 27.864H40.4963L39.4243 30.632C39.3923 30.728 39.3309 30.8133 39.2403 30.888C39.1496 30.9627 39.0376 31 38.9043 31H37.7043L42.2883 19.536H43.8563L48.4403 31ZM51.0531 19.216V31H49.6291V19.216H51.0531ZM54.8344 19.216V31H53.4104V19.216H54.8344ZM64.7494 25.088C65.1974 25.088 65.592 25.0347 65.9334 24.928C66.28 24.816 66.568 24.6613 66.7974 24.464C67.032 24.2613 67.208 24.0213 67.3254 23.744C67.4427 23.4667 67.5014 23.16 67.5014 22.824C67.5014 22.1413 67.2774 21.6267 66.8294 21.28C66.3814 20.9333 65.7094 20.76 64.8134 20.76H63.1174V25.088H64.7494ZM70.0454 31H68.6694C68.3867 31 68.1787 30.8907 68.0454 30.672L65.0694 26.576C64.9787 26.448 64.88 26.3573 64.7734 26.304C64.672 26.2453 64.512 26.216 64.2934 26.216H63.1174V31H61.5734V19.536H64.8134C65.5387 19.536 66.1654 19.6107 66.6934 19.76C67.2214 19.904 67.656 20.1147 67.9974 20.392C68.344 20.6693 68.6 21.0053 68.7654 21.4C68.9307 21.7893 69.0134 22.2267 69.0134 22.712C69.0134 23.1173 68.9494 23.496 68.8214 23.848C68.6934 24.2 68.5067 24.5173 68.2614 24.8C68.0214 25.0773 67.7254 25.3147 67.3734 25.512C67.0267 25.7093 66.632 25.8587 66.1894 25.96C66.3867 26.072 66.5574 26.2347 66.7014 26.448L70.0454 31ZM72.6633 22.896V31H71.2393V22.896H72.6633ZM72.9673 20.352C72.9673 20.4907 72.9379 20.6213 72.8793 20.744C72.8259 20.8613 72.7513 20.968 72.6553 21.064C72.5646 21.1547 72.4553 21.2267 72.3273 21.28C72.2046 21.3333 72.0739 21.36 71.9353 21.36C71.7966 21.36 71.6659 21.3333 71.5433 21.28C71.4259 21.2267 71.3219 21.1547 71.2313 21.064C71.1406 20.968 71.0686 20.8613 71.0153 20.744C70.9619 20.6213 70.9353 20.4907 70.9353 20.352C70.9353 20.2133 70.9619 20.0827 71.0153 19.96C71.0686 19.832 71.1406 19.7227 71.2313 19.632C71.3219 19.536 71.4259 19.4613 71.5433 19.408C71.6659 19.3547 71.7966 19.328 71.9353 19.328C72.0739 19.328 72.2046 19.3547 72.3273 19.408C72.4553 19.4613 72.5646 19.536 72.6553 19.632C72.7513 19.7227 72.8259 19.832 72.8793 19.96C72.9379 20.0827 72.9673 20.2133 72.9673 20.352ZM77.827 27.04C78.115 27.04 78.3683 27 78.587 26.92C78.8057 26.84 78.9897 26.728 79.139 26.584C79.2883 26.44 79.4003 26.2693 79.475 26.072C79.5497 25.8693 79.587 25.648 79.587 25.408C79.587 24.912 79.435 24.5173 79.131 24.224C78.8323 23.9307 78.3977 23.784 77.827 23.784C77.251 23.784 76.811 23.9307 76.507 24.224C76.2083 24.5173 76.059 24.912 76.059 25.408C76.059 25.648 76.0963 25.8693 76.171 26.072C76.251 26.2693 76.3657 26.44 76.515 26.584C76.6643 26.728 76.8483 26.84 77.067 26.92C77.2857 27 77.539 27.04 77.827 27.04ZM80.395 31.44C80.395 31.2427 80.339 31.0827 80.227 30.96C80.115 30.8373 79.963 30.7413 79.771 30.672C79.5843 30.6027 79.3657 30.5547 79.115 30.528C78.8643 30.496 78.5977 30.472 78.315 30.456C78.0377 30.44 77.755 30.424 77.467 30.408C77.179 30.392 76.9017 30.3653 76.635 30.328C76.3363 30.4667 76.091 30.6427 75.899 30.856C75.7123 31.064 75.619 31.3093 75.619 31.592C75.619 31.7733 75.6643 31.9413 75.755 32.096C75.851 32.256 75.995 32.392 76.187 32.504C76.379 32.6213 76.619 32.712 76.907 32.776C77.2003 32.8453 77.5443 32.88 77.939 32.88C78.323 32.88 78.667 32.8453 78.971 32.776C79.275 32.7067 79.531 32.608 79.739 32.48C79.9523 32.352 80.115 32.2 80.227 32.024C80.339 31.848 80.395 31.6533 80.395 31.44ZM81.843 23.216V23.744C81.843 23.92 81.731 24.032 81.507 24.08L80.587 24.2C80.7683 24.552 80.859 24.9413 80.859 25.368C80.859 25.7627 80.7817 26.1227 80.627 26.448C80.4777 26.768 80.2697 27.0427 80.003 27.272C79.7363 27.5013 79.4163 27.6773 79.043 27.8C78.6697 27.9227 78.2643 27.984 77.827 27.984C77.4483 27.984 77.091 27.9387 76.755 27.848C76.5843 27.9547 76.4537 28.0693 76.363 28.192C76.2723 28.3093 76.227 28.4293 76.227 28.552C76.227 28.744 76.3043 28.8907 76.459 28.992C76.619 29.088 76.827 29.1573 77.083 29.2C77.339 29.2427 77.6297 29.2693 77.955 29.28C78.2857 29.2907 78.6217 29.3093 78.963 29.336C79.3097 29.3573 79.6457 29.3973 79.971 29.456C80.3017 29.5147 80.595 29.6107 80.851 29.744C81.107 29.8773 81.3123 30.0613 81.467 30.296C81.627 30.5307 81.707 30.8347 81.707 31.208C81.707 31.5547 81.619 31.8907 81.443 32.216C81.2723 32.5413 81.0243 32.8293 80.699 33.08C80.3737 33.336 79.9737 33.5387 79.499 33.688C79.0297 33.8427 78.499 33.92 77.907 33.92C77.315 33.92 76.7977 33.8613 76.355 33.744C75.9123 33.6267 75.5443 33.4693 75.251 33.272C74.9577 33.0747 74.7363 32.8453 74.587 32.584C74.443 32.328 74.371 32.0587 74.371 31.776C74.371 31.376 74.4963 31.0373 74.747 30.76C74.9977 30.4827 75.3417 30.2613 75.779 30.096C75.539 29.9893 75.347 29.848 75.203 29.672C75.0643 29.4907 74.995 29.248 74.995 28.944C74.995 28.8267 75.0163 28.7067 75.059 28.584C75.1017 28.456 75.1657 28.3307 75.251 28.208C75.3417 28.08 75.451 27.96 75.579 27.848C75.707 27.736 75.8563 27.6373 76.027 27.552C75.627 27.328 75.315 27.032 75.091 26.664C74.867 26.2907 74.755 25.8587 74.755 25.368C74.755 24.9733 74.8297 24.616 74.979 24.296C75.1337 23.9707 75.347 23.696 75.619 23.472C75.891 23.2427 76.2137 23.0667 76.587 22.944C76.9657 22.8213 77.379 22.76 77.827 22.76C78.179 22.76 78.507 22.8 78.811 22.88C79.115 22.9547 79.3923 23.0667 79.643 23.216H81.843ZM84.7475 23.976C85.0942 23.608 85.4782 23.3147 85.8995 23.096C86.3208 22.8773 86.8062 22.768 87.3555 22.768C87.7982 22.768 88.1875 22.8427 88.5235 22.992C88.8648 23.136 89.1475 23.344 89.3715 23.616C89.6008 23.8827 89.7742 24.2053 89.8915 24.584C90.0088 24.9627 90.0675 25.3813 90.0675 25.84V31H88.6355V25.84C88.6355 25.2267 88.4942 24.752 88.2115 24.416C87.9342 24.0747 87.5102 23.904 86.9395 23.904C86.5182 23.904 86.1235 24.0053 85.7555 24.208C85.3928 24.4107 85.0568 24.6853 84.7475 25.032V31H83.3155V19.216H84.7475V23.976ZM94.616 31.128C93.976 31.128 93.4827 30.9493 93.136 30.592C92.7947 30.2347 92.624 29.72 92.624 29.048V24.088H91.648C91.5627 24.088 91.4907 24.064 91.432 24.016C91.3733 23.9627 91.344 23.8827 91.344 23.776V23.208L92.672 23.04L93 20.536C93.016 20.456 93.0507 20.392 93.104 20.344C93.1627 20.2907 93.2373 20.264 93.328 20.264H94.048V23.056H96.392V24.088H94.048V28.952C94.048 29.2933 94.1307 29.5467 94.296 29.712C94.4613 29.8773 94.6747 29.96 94.936 29.96C95.0853 29.96 95.2133 29.9413 95.32 29.904C95.432 29.8613 95.528 29.816 95.608 29.768C95.688 29.72 95.7547 29.6773 95.808 29.64C95.8667 29.5973 95.9173 29.576 95.96 29.576C96.0347 29.576 96.1013 29.6213 96.16 29.712L96.576 30.392C96.3307 30.6213 96.0347 30.8027 95.688 30.936C95.3413 31.064 94.984 31.128 94.616 31.128ZM102.582 24.232C102.518 24.3493 102.42 24.408 102.286 24.408C102.206 24.408 102.116 24.3787 102.014 24.32C101.913 24.2613 101.788 24.1973 101.638 24.128C101.494 24.0533 101.321 23.9867 101.118 23.928C100.916 23.864 100.676 23.832 100.398 23.832C100.158 23.832 99.9424 23.864 99.7504 23.928C99.5584 23.9867 99.393 24.0693 99.2544 24.176C99.121 24.2827 99.017 24.408 98.9424 24.552C98.873 24.6907 98.8384 24.8427 98.8384 25.008C98.8384 25.216 98.897 25.3893 99.0144 25.528C99.137 25.6667 99.297 25.7867 99.4944 25.888C99.6917 25.9893 99.9157 26.08 100.166 26.16C100.417 26.2347 100.673 26.3173 100.934 26.408C101.201 26.4933 101.46 26.5893 101.71 26.696C101.961 26.8027 102.185 26.936 102.382 27.096C102.58 27.256 102.737 27.4533 102.854 27.688C102.977 27.9173 103.038 28.1947 103.038 28.52C103.038 28.8933 102.972 29.24 102.838 29.56C102.705 29.8747 102.508 30.1493 102.246 30.384C101.985 30.6133 101.665 30.7947 101.286 30.928C100.908 31.0613 100.47 31.128 99.9744 31.128C99.409 31.128 98.897 31.0373 98.4384 30.856C97.9797 30.6693 97.5904 30.432 97.2704 30.144L97.6064 29.6C97.649 29.5307 97.6997 29.4773 97.7584 29.44C97.817 29.4027 97.8917 29.384 97.9824 29.384C98.0784 29.384 98.1797 29.4213 98.2864 29.496C98.393 29.5707 98.521 29.6533 98.6704 29.744C98.825 29.8347 99.0117 29.9173 99.2304 29.992C99.449 30.0667 99.721 30.104 100.046 30.104C100.324 30.104 100.566 30.0693 100.774 30C100.982 29.9253 101.156 29.8267 101.294 29.704C101.433 29.5813 101.534 29.44 101.598 29.28C101.668 29.12 101.702 28.9493 101.702 28.768C101.702 28.544 101.641 28.36 101.518 28.216C101.401 28.0667 101.244 27.9413 101.046 27.84C100.849 27.7333 100.622 27.6427 100.366 27.568C100.116 27.488 99.857 27.4053 99.5904 27.32C99.329 27.2347 99.0704 27.1387 98.8144 27.032C98.5637 26.92 98.3397 26.7813 98.1424 26.616C97.945 26.4507 97.785 26.248 97.6624 26.008C97.545 25.7627 97.4864 25.4667 97.4864 25.12C97.4864 24.8107 97.5504 24.5147 97.6784 24.232C97.8064 23.944 97.993 23.6933 98.2384 23.48C98.4837 23.2613 98.785 23.088 99.1424 22.96C99.4997 22.832 99.9077 22.768 100.366 22.768C100.9 22.768 101.377 22.8533 101.798 23.024C102.225 23.1893 102.593 23.4187 102.902 23.712L102.582 24.232ZM112.39 25.088C112.838 25.088 113.233 25.0347 113.574 24.928C113.921 24.816 114.209 24.6613 114.438 24.464C114.673 24.2613 114.849 24.0213 114.966 23.744C115.083 23.4667 115.142 23.16 115.142 22.824C115.142 22.1413 114.918 21.6267 114.47 21.28C114.022 20.9333 113.35 20.76 112.454 20.76H110.758V25.088H112.39ZM117.686 31H116.31C116.027 31 115.819 30.8907 115.686 30.672L112.71 26.576C112.619 26.448 112.521 26.3573 112.414 26.304C112.313 26.2453 112.153 26.216 111.934 26.216H110.758V31H109.214V19.536H112.454C113.179 19.536 113.806 19.6107 114.334 19.76C114.862 19.904 115.297 20.1147 115.638 20.392C115.985 20.6693 116.241 21.0053 116.406 21.4C116.571 21.7893 116.654 22.2267 116.654 22.712C116.654 23.1173 116.59 23.496 116.462 23.848C116.334 24.2 116.147 24.5173 115.902 24.8C115.662 25.0773 115.366 25.3147 115.014 25.512C114.667 25.7093 114.273 25.8587 113.83 25.96C114.027 26.072 114.198 26.2347 114.342 26.448L117.686 31ZM123.818 26.064C123.818 25.7333 123.77 25.432 123.674 25.16C123.583 24.8827 123.447 24.6453 123.266 24.448C123.09 24.2453 122.874 24.0907 122.618 23.984C122.362 23.872 122.071 23.816 121.746 23.816C121.063 23.816 120.522 24.016 120.122 24.416C119.727 24.8107 119.482 25.36 119.386 26.064H123.818ZM124.97 29.864C124.794 30.0773 124.583 30.264 124.338 30.424C124.092 30.5787 123.828 30.7067 123.546 30.808C123.268 30.9093 122.98 30.984 122.682 31.032C122.383 31.0853 122.087 31.112 121.794 31.112C121.234 31.112 120.716 31.0187 120.242 30.832C119.772 30.64 119.364 30.3627 119.018 30C118.676 29.632 118.41 29.1787 118.218 28.64C118.026 28.1013 117.93 27.4827 117.93 26.784C117.93 26.2187 118.015 25.6907 118.186 25.2C118.362 24.7093 118.612 24.2853 118.938 23.928C119.263 23.5653 119.66 23.2827 120.13 23.08C120.599 22.872 121.127 22.768 121.714 22.768C122.199 22.768 122.647 22.8507 123.058 23.016C123.474 23.176 123.831 23.4107 124.13 23.72C124.434 24.024 124.671 24.4027 124.842 24.856C125.012 25.304 125.098 25.816 125.098 26.392C125.098 26.616 125.074 26.7653 125.026 26.84C124.978 26.9147 124.887 26.952 124.754 26.952H119.338C119.354 27.464 119.423 27.9093 119.546 28.288C119.674 28.6667 119.85 28.984 120.074 29.24C120.298 29.4907 120.564 29.68 120.874 29.808C121.183 29.9307 121.53 29.992 121.914 29.992C122.271 29.992 122.578 29.952 122.834 29.872C123.095 29.7867 123.319 29.696 123.506 29.6C123.692 29.504 123.847 29.416 123.97 29.336C124.098 29.2507 124.207 29.208 124.298 29.208C124.415 29.208 124.506 29.2533 124.57 29.344L124.97 29.864ZM131.567 24.232C131.503 24.3493 131.404 24.408 131.271 24.408C131.191 24.408 131.1 24.3787 130.999 24.32C130.897 24.2613 130.772 24.1973 130.623 24.128C130.479 24.0533 130.305 23.9867 130.103 23.928C129.9 23.864 129.66 23.832 129.383 23.832C129.143 23.832 128.927 23.864 128.735 23.928C128.543 23.9867 128.377 24.0693 128.239 24.176C128.105 24.2827 128.001 24.408 127.927 24.552C127.857 24.6907 127.823 24.8427 127.823 25.008C127.823 25.216 127.881 25.3893 127.999 25.528C128.121 25.6667 128.281 25.7867 128.479 25.888C128.676 25.9893 128.9 26.08 129.151 26.16C129.401 26.2347 129.657 26.3173 129.919 26.408C130.185 26.4933 130.444 26.5893 130.695 26.696C130.945 26.8027 131.169 26.936 131.367 27.096C131.564 27.256 131.721 27.4533 131.839 27.688C131.961 27.9173 132.023 28.1947 132.023 28.52C132.023 28.8933 131.956 29.24 131.823 29.56C131.689 29.8747 131.492 30.1493 131.231 30.384C130.969 30.6133 130.649 30.7947 130.271 30.928C129.892 31.0613 129.455 31.128 128.959 31.128C128.393 31.128 127.881 31.0373 127.423 30.856C126.964 30.6693 126.575 30.432 126.255 30.144L126.591 29.6C126.633 29.5307 126.684 29.4773 126.743 29.44C126.801 29.4027 126.876 29.384 126.967 29.384C127.063 29.384 127.164 29.4213 127.271 29.496C127.377 29.5707 127.505 29.6533 127.655 29.744C127.809 29.8347 127.996 29.9173 128.215 29.992C128.433 30.0667 128.705 30.104 129.031 30.104C129.308 30.104 129.551 30.0693 129.759 30C129.967 29.9253 130.14 29.8267 130.279 29.704C130.417 29.5813 130.519 29.44 130.583 29.28C130.652 29.12 130.687 28.9493 130.687 28.768C130.687 28.544 130.625 28.36 130.503 28.216C130.385 28.0667 130.228 27.9413 130.031 27.84C129.833 27.7333 129.607 27.6427 129.351 27.568C129.1 27.488 128.841 27.4053 128.575 27.32C128.313 27.2347 128.055 27.1387 127.799 27.032C127.548 26.92 127.324 26.7813 127.127 26.616C126.929 26.4507 126.769 26.248 126.647 26.008C126.529 25.7627 126.471 25.4667 126.471 25.12C126.471 24.8107 126.535 24.5147 126.663 24.232C126.791 23.944 126.977 23.6933 127.223 23.48C127.468 23.2613 127.769 23.088 128.127 22.96C128.484 22.832 128.892 22.768 129.351 22.768C129.884 22.768 130.361 22.8533 130.783 23.024C131.209 23.1893 131.577 23.4187 131.887 23.712L131.567 24.232ZM139.193 26.064C139.193 25.7333 139.145 25.432 139.049 25.16C138.958 24.8827 138.822 24.6453 138.641 24.448C138.465 24.2453 138.249 24.0907 137.993 23.984C137.737 23.872 137.446 23.816 137.121 23.816C136.438 23.816 135.897 24.016 135.497 24.416C135.102 24.8107 134.857 25.36 134.761 26.064H139.193ZM140.345 29.864C140.169 30.0773 139.958 30.264 139.713 30.424C139.467 30.5787 139.203 30.7067 138.921 30.808C138.643 30.9093 138.355 30.984 138.057 31.032C137.758 31.0853 137.462 31.112 137.169 31.112C136.609 31.112 136.091 31.0187 135.617 30.832C135.147 30.64 134.739 30.3627 134.393 30C134.051 29.632 133.785 29.1787 133.593 28.64C133.401 28.1013 133.305 27.4827 133.305 26.784C133.305 26.2187 133.39 25.6907 133.561 25.2C133.737 24.7093 133.987 24.2853 134.313 23.928C134.638 23.5653 135.035 23.2827 135.505 23.08C135.974 22.872 136.502 22.768 137.089 22.768C137.574 22.768 138.022 22.8507 138.433 23.016C138.849 23.176 139.206 23.4107 139.505 23.72C139.809 24.024 140.046 24.4027 140.217 24.856C140.387 25.304 140.473 25.816 140.473 26.392C140.473 26.616 140.449 26.7653 140.401 26.84C140.353 26.9147 140.262 26.952 140.129 26.952H134.713C134.729 27.464 134.798 27.9093 134.921 28.288C135.049 28.6667 135.225 28.984 135.449 29.24C135.673 29.4907 135.939 29.68 136.249 29.808C136.558 29.9307 136.905 29.992 137.289 29.992C137.646 29.992 137.953 29.952 138.209 29.872C138.47 29.7867 138.694 29.696 138.881 29.6C139.067 29.504 139.222 29.416 139.345 29.336C139.473 29.2507 139.582 29.208 139.673 29.208C139.79 29.208 139.881 29.2533 139.945 29.344L140.345 29.864ZM143.574 24.52C143.83 23.9653 144.144 23.5333 144.518 23.224C144.891 22.9093 145.347 22.752 145.886 22.752C146.056 22.752 146.219 22.7707 146.374 22.808C146.534 22.8453 146.675 22.904 146.798 22.984L146.694 24.048C146.662 24.1813 146.582 24.248 146.454 24.248C146.379 24.248 146.27 24.232 146.126 24.2C145.982 24.168 145.819 24.152 145.638 24.152C145.382 24.152 145.152 24.1893 144.95 24.264C144.752 24.3387 144.574 24.4507 144.414 24.6C144.259 24.744 144.118 24.9253 143.99 25.144C143.867 25.3573 143.755 25.6027 143.654 25.88V31H142.222V22.896H143.038C143.192 22.896 143.299 22.9253 143.358 22.984C143.416 23.0427 143.456 23.144 143.478 23.288L143.574 24.52ZM154.994 22.896L151.69 31H150.41L147.106 22.896H148.266C148.383 22.896 148.479 22.9253 148.554 22.984C148.629 23.0427 148.679 23.112 148.706 23.192L150.762 28.408C150.826 28.6053 150.882 28.7973 150.93 28.984C150.978 29.1707 151.023 29.3573 151.066 29.544C151.109 29.3573 151.154 29.1707 151.202 28.984C151.25 28.7973 151.309 28.6053 151.378 28.408L153.458 23.192C153.49 23.1067 153.543 23.0373 153.618 22.984C153.693 22.9253 153.781 22.896 153.882 22.896H154.994ZM161.505 26.064C161.505 25.7333 161.457 25.432 161.361 25.16C161.27 24.8827 161.134 24.6453 160.953 24.448C160.777 24.2453 160.561 24.0907 160.305 23.984C160.049 23.872 159.758 23.816 159.433 23.816C158.75 23.816 158.209 24.016 157.809 24.416C157.414 24.8107 157.169 25.36 157.073 26.064H161.505ZM162.657 29.864C162.481 30.0773 162.27 30.264 162.025 30.424C161.78 30.5787 161.516 30.7067 161.233 30.808C160.956 30.9093 160.668 30.984 160.369 31.032C160.07 31.0853 159.774 31.112 159.481 31.112C158.921 31.112 158.404 31.0187 157.929 30.832C157.46 30.64 157.052 30.3627 156.705 30C156.364 29.632 156.097 29.1787 155.905 28.64C155.713 28.1013 155.617 27.4827 155.617 26.784C155.617 26.2187 155.702 25.6907 155.873 25.2C156.049 24.7093 156.3 24.2853 156.625 23.928C156.95 23.5653 157.348 23.2827 157.817 23.08C158.286 22.872 158.814 22.768 159.401 22.768C159.886 22.768 160.334 22.8507 160.745 23.016C161.161 23.176 161.518 23.4107 161.817 23.72C162.121 24.024 162.358 24.4027 162.529 24.856C162.7 25.304 162.785 25.816 162.785 26.392C162.785 26.616 162.761 26.7653 162.713 26.84C162.665 26.9147 162.574 26.952 162.441 26.952H157.025C157.041 27.464 157.11 27.9093 157.233 28.288C157.361 28.6667 157.537 28.984 157.761 29.24C157.985 29.4907 158.252 29.68 158.561 29.808C158.87 29.9307 159.217 29.992 159.601 29.992C159.958 29.992 160.265 29.952 160.521 29.872C160.782 29.7867 161.006 29.696 161.193 29.6C161.38 29.504 161.534 29.416 161.657 29.336C161.785 29.2507 161.894 29.208 161.985 29.208C162.102 29.208 162.193 29.2533 162.257 29.344L162.657 29.864ZM169.814 24.824C169.548 24.4667 169.26 24.2187 168.95 24.08C168.641 23.936 168.294 23.864 167.91 23.864C167.158 23.864 166.58 24.1333 166.174 24.672C165.769 25.2107 165.566 25.9787 165.566 26.976C165.566 27.504 165.612 27.9573 165.702 28.336C165.793 28.7093 165.926 29.0187 166.102 29.264C166.278 29.504 166.494 29.68 166.75 29.792C167.006 29.904 167.297 29.96 167.622 29.96C168.092 29.96 168.5 29.8533 168.846 29.64C169.198 29.4267 169.521 29.1253 169.814 28.736V24.824ZM171.238 19.216V31H170.39C170.188 31 170.06 30.9013 170.006 30.704L169.878 29.72C169.532 30.136 169.137 30.472 168.694 30.728C168.252 30.984 167.74 31.112 167.158 31.112C166.694 31.112 166.273 31.024 165.894 30.848C165.516 30.6667 165.193 30.4027 164.926 30.056C164.66 29.7093 164.454 29.2773 164.31 28.76C164.166 28.2427 164.094 27.648 164.094 26.976C164.094 26.3787 164.174 25.824 164.334 25.312C164.494 24.7947 164.724 24.3467 165.022 23.968C165.321 23.5893 165.686 23.2933 166.118 23.08C166.556 22.8613 167.046 22.752 167.59 22.752C168.086 22.752 168.51 22.8373 168.862 23.008C169.22 23.1733 169.537 23.4053 169.814 23.704V19.216H171.238ZM173.247 30.12C173.247 29.9813 173.271 29.8507 173.319 29.728C173.373 29.6053 173.442 29.4987 173.527 29.408C173.618 29.3173 173.725 29.2453 173.847 29.192C173.97 29.1387 174.101 29.112 174.239 29.112C174.378 29.112 174.509 29.1387 174.631 29.192C174.754 29.2453 174.861 29.3173 174.951 29.408C175.042 29.4987 175.114 29.6053 175.167 29.728C175.221 29.8507 175.247 29.9813 175.247 30.12C175.247 30.264 175.221 30.3973 175.167 30.52C175.114 30.6373 175.042 30.7413 174.951 30.832C174.861 30.9227 174.754 30.992 174.631 31.04C174.509 31.0933 174.378 31.12 174.239 31.12C174.101 31.12 173.97 31.0933 173.847 31.04C173.725 30.992 173.618 30.9227 173.527 30.832C173.442 30.7413 173.373 30.6373 173.319 30.52C173.271 30.3973 173.247 30.264 173.247 30.12Z" fill="#919191"/>
</svg>
