<svg width="88" height="19" viewBox="0 0 88 19" fill="none" xmlns="http://www.w3.org/2000/svg">
<path d="M17.96 7.98C17.96 4.3 15.3 2.1 10.58 1.86V0.439999H8.18V1.86C3.46 2.1 0.78 4.28 0.78 7.98C0.78 11.66 3.46 13.84 8.18 14.08V15.56H10.58V14.08C15.3 13.88 17.96 11.66 17.96 7.98ZM10.58 12.04V3.92C13.74 4.14 15.46 5.5 15.46 7.96C15.46 10.42 13.78 11.8 10.58 12.04ZM3.32 7.98C3.32 5.5 4.96 4.16 8.18 3.92V12.04C5.08 11.78 3.32 10.44 3.32 7.98ZM20.4105 15H22.7105L28.5905 7.96V15H31.0905V4.32H28.8105L22.9105 11.36V4.32H20.4105V15ZM35.4934 4.32L35.3134 8.44C35.1934 10.66 35.1334 12.94 33.4934 12.94C33.3534 12.94 33.1934 12.92 33.0134 12.88L32.8934 14.98C33.4134 15.12 33.8734 15.2 34.2734 15.2C36.7934 15.2 37.3534 12.36 37.5334 8.56L37.6334 6.44H41.6334V15H44.1334V4.32H35.4934ZM55.9603 4.32H45.9603V6.44H49.7203V15H52.2203V6.44H55.9603V4.32ZM64.77 7.82H62.05V4.32H56.39V6.44H59.55V15H64.37C67.25 15 68.93 13.68 68.93 11.34C68.93 9.14 67.47 7.82 64.77 7.82ZM64.25 13.16H62.05V9.56H64.25C65.67 9.56 66.39 10.12 66.39 11.28C66.39 12.5 65.67 13.16 64.25 13.16ZM77.0531 4.2C75.5931 4.2 74.3531 4.7 73.5131 5.72V4.32H71.1331V18.88H73.6331V13.7C74.4931 14.68 75.6931 15.14 77.0531 15.14C80.1731 15.14 82.4731 12.98 82.4731 9.66C82.4731 6.36 80.1731 4.2 77.0531 4.2ZM76.7731 13C74.9731 13 73.5931 11.7 73.5931 9.66C73.5931 7.62 74.9731 6.32 76.7731 6.32C78.5731 6.32 79.9331 7.62 79.9331 9.66C79.9331 11.7 78.5731 13 76.7731 13ZM85.7213 7.52C86.6213 7.52 87.3613 6.82 87.3613 5.86C87.3613 4.86 86.6213 4.2 85.7213 4.2C84.8213 4.2 84.0813 4.86 84.0813 5.86C84.0813 6.82 84.8213 7.52 85.7213 7.52ZM85.7213 15.14C86.6213 15.14 87.3613 14.44 87.3613 13.48C87.3613 12.48 86.6213 11.82 85.7213 11.82C84.8213 11.82 84.0813 12.48 84.0813 13.48C84.0813 14.44 84.8213 15.14 85.7213 15.14Z" fill="#565656"/>
</svg>
